<?xml version="1.0" encoding="UTF-8"?>
<svg version="1.1" xmlns="http://www.w3.org/2000/svg" width="500" height="500">
<path d="M0 0 C2.375 1 2.375 1 4 3 C4.18959554 5.06831503 4.12551998 6.99403158 3.9453125 9.0625 C3.83776157 11.33189606 3.83776157 11.33189606 6 14 C7.7955731 11.19441703 7.99517393 9.86245688 7.875 6.4375 C8 3 8 3 9.5625 1.0625 C12.93917898 -0.40938571 15.34295541 -0.37831496 19 0 C19.928125 0.495 20.85625 0.99 21.8125 1.5 C25.15079029 3.07096014 26.54280533 3.10008863 30.125 2.9375 C34.68811593 2.80692891 34.68811593 2.80692891 37.625 4.625 C39.34529892 7.59642541 39.30719041 9.62090549 39 13 C39.61875 13.06703125 40.2375 13.1340625 40.875 13.203125 C43 14 43 14 44.125 16.109375 C44.41375 16.98078125 44.7025 17.8521875 45 18.75 C46.15383014 21.98346075 46.86940594 23.85448091 49.1875 26.4375 C51.67469914 29.95388499 51.48835962 32.99739095 51.7265625 37.22265625 C52.11389517 41.15684954 53.49138717 44.38545556 55 48 C56.42800069 52.28400206 57.20609595 54.71165885 56 59 C56.226875 60.134375 56.45375 61.26875 56.6875 62.4375 C56.790625 63.613125 56.89375 64.78875 57 66 C56.35546875 66.75539063 55.7109375 67.51078125 55.046875 68.2890625 C52.46349952 71.71055598 52.56710075 73.70021146 52.5625 77.9375 C52.23214941 85.6322516 52.23214941 85.6322516 49.625 88.75 C47 91 47 91 44 93 C43.505 93.99 43.01 94.98 42.5 96 C41 99 41 99 38 101 C35.66015625 101.2734375 35.66015625 101.2734375 33.0625 101.375 C28.94785942 101.67564148 28.94785942 101.67564148 25.5625 104 C24.7890625 104.99 24.7890625 104.99 24 106 C19.15429648 107.61523451 14.81603522 107.6568638 10.0625 105.9375 C7.12542253 103.17842723 7.14072736 100.94036614 7 97 C7.495 95.515 7.495 95.515 8 94 C7.01 94 6.02 94 5 94 C5.10441406 94.90492188 5.10441406 94.90492188 5.2109375 95.828125 C5.38002413 98.32416577 5.39995737 100.52792308 5 103 C1.90670866 106.17062362 -0.72991777 107.22374832 -5.0625 107.4375 C-10.03021158 106.88553205 -12.52048931 105.47951069 -16 102 C-18.26911608 101.72562243 -18.26911608 101.72562243 -20.8125 101.6875 C-24.69949843 101.37339912 -25.7929102 101.15963172 -29 98.6875 C-31 96 -31 96 -32 93.9375 C-32.96096834 91.75284613 -32.96096834 91.75284613 -35.5 90 C-38.04077119 87.96738305 -38.84076698 86.95711756 -40 84 C-40.125 81.81640625 -40.125 81.81640625 -40 79.5625 C-39.89651629 74.6987656 -40.79189426 71.6555523 -43.6875 67.6875 C-45.23927444 64.5100571 -44.9292774 62.4856409 -44.3203125 59.05859375 C-43.89660154 56.71923478 -43.89660154 56.71923478 -44.0625 53.1875 C-44 50 -44 50 -42 47 C-41.30643577 44.67451993 -40.63850788 42.34119555 -40 40 C-39.67 39.34 -39.34 38.68 -39 38 C-39.061875 36.1128125 -39.061875 36.1128125 -39.125 34.1875 C-39.18595072 29.37239287 -37.48354663 26.78025596 -34.4375 23.125 C-32.5022889 20.26425316 -31.83186112 17.3274445 -31 14 C-29.68 13.67 -28.36 13.34 -27 13 C-26.896875 11.906875 -26.79375 10.81375 -26.6875 9.6875 C-25.82143481 5.04224123 -25.82143481 5.04224123 -23 3 C-20.765625 2.8125 -20.765625 2.8125 -18.25 3 C-14.78934047 3.12072068 -12.37893443 3.00859339 -9.25 1.5 C-5.76733965 -0.1073817 -3.78017516 -0.50402335 0 0 Z M-7 4 C-7.73740217 6.51948778 -7.73740217 6.51948778 -8 9 C-7.67 9.33 -7.34 9.66 -7 10 C-7.99 10.33 -8.98 10.66 -10 11 C-9.67 8.69 -9.34 6.38 -9 4 C-11.04001576 4.68588097 -11.04001576 4.68588097 -13 6 C-13.62780963 8.01930021 -13.62780963 8.01930021 -13.625 10.3125 C-13.86334887 13.91679995 -14.40640947 16.70657957 -16 20 C-15.34 20.66 -14.68 21.32 -14 22 C-11.39719432 21.67958603 -11.39719432 21.67958603 -9 21 C-9.66 21.99 -10.32 22.98 -11 24 C-10.67 24.99 -10.34 25.98 -10 27 C-7.37098712 25.47793991 -5.15634036 24.15634036 -3 22 C-3 22.66 -3 23.32 -3 24 C-2.34 24 -1.68 24 -1 24 C-1 24.66 -1 25.32 -1 26 C-1.9075 25.9175 -2.815 25.835 -3.75 25.75 C-7.01299125 25.70418783 -7.01299125 25.70418783 -9.125 27.625 C-9.74375 28.40875 -10.3625 29.1925 -11 30 C-12.1446875 31.299375 -12.1446875 31.299375 -13.3125 32.625 C-15.65447073 37.30894145 -14.9151796 40.96651221 -14 46 C-12.35 46.33 -10.7 46.66 -9 47 C-9 46.34 -9 45.68 -9 45 C-8.01 45 -7.02 45 -6 45 C-6.33 45.99 -6.66 46.98 -7 48 C-3.7 48 -0.4 48 3 48 C2.44894091 44.0507432 1.61064629 40.65079826 0 37 C0.66 37 1.32 37 2 37 C3.50771827 33.98456345 2.9938372 31.33934165 2.8125 28 C2.75707031 26.741875 2.70164062 25.48375 2.64453125 24.1875 C2.34750343 20.96519127 2.34750343 20.96519127 0.21484375 19.5703125 C-2.05249081 18.98648385 -3.91375087 18.79712503 -6.25 18.875 C-7.4875 18.91625 -8.725 18.9575 -10 19 C-1.42857143 17.71428571 -1.42857143 17.71428571 2 19 C2.66 17.68 3.32 16.36 4 15 C2.02 12.69 0.04 10.38 -2 8 C-0.68 8.33 0.64 8.66 2 9 C2.16687448 6.58354218 2.16687448 6.58354218 2 4 C0.17296773 1.7508092 0.17296773 1.7508092 -2.5 1.75 C-5.17296773 1.7508092 -5.17296773 1.7508092 -7 4 Z M12.3125 2.125 C9.70704406 3.79113257 9.70704406 3.79113257 9.6875 6.6875 C9.790625 7.450625 9.89375 8.21375 10 9 C11.65 8.34 13.3 7.68 15 7 C15 7.66 15 8.32 15 9 C14.38125 9.28875 13.7625 9.5775 13.125 9.875 C10.86674235 10.93720042 10.86674235 10.93720042 9 13 C8.83312552 15.58354218 8.83312552 15.58354218 9 18 C11.95156636 19.2454846 11.95156636 19.2454846 14.9375 18.5 C17.8067842 18.03154544 19.30711744 18.06784834 22 19 C20.046875 18.93489583 18.09375 18.86979167 16.140625 18.8046875 C13.50356943 19.04529476 12.107413 19.360901 10 21 C9.17853445 23.9998947 9.17853445 23.9998947 9.0625 27.4375 C8.97097656 28.59121094 8.87945312 29.74492187 8.78515625 30.93359375 C8.68715601 34.34311223 8.68715601 34.34311223 12 37 C11.01 40.3 10.02 43.6 9 47 C9.98267859 48.20561184 9.98267859 48.20561184 11.84765625 48.09765625 C13.8984375 48.06510417 15.94921875 48.03255208 18 48 C18 47.01 18 46.02 18 45 C18.86625 45.5259375 18.86625 45.5259375 19.75 46.0625 C21.93510649 47.18726544 21.93510649 47.18726544 24.1875 46.75 C26.19815586 46.14991567 26.19815586 46.14991567 27 44 C27.81076281 37.39807428 26.32745528 34.16402518 22.5078125 28.78515625 C21.1078613 26.88945932 21.1078613 26.88945932 19 26 C17.00039988 25.960008 14.99952758 25.95653201 13 26 C13 25.34 13 24.68 13 24 C13.66 24 14.32 24 15 24 C15.33 23.34 15.66 22.68 16 22 C17.98 23.32 19.96 24.64 22 26 C22.33 24.68 22.66 23.36 23 22 C23.639375 21.896875 24.27875 21.79375 24.9375 21.6875 C25.618125 21.460625 26.29875 21.23375 27 21 C28.24703266 17.25890201 27.45460854 16.55570977 26 13 C25.87625 11.783125 25.7525 10.56625 25.625 9.3125 C25.38323313 5.90950806 25.38323313 5.90950806 22.9375 4.5625 C22.298125 4.376875 21.65875 4.19125 21 4 C21.33 5.98 21.66 7.96 22 10 C21.01 10 20.02 10 19 10 C19.33 9.01 19.66 8.02 20 7 C19.33903214 4.34754398 19.33903214 4.34754398 18 2 C15.02550974 0.64293424 15.02550974 0.64293424 12.3125 2.125 Z M-23.3125 5.6875 C-25.39297938 8.06140303 -25.39297938 8.06140303 -25 12 C-23.68 12 -22.36 12 -21 12 C-21.66 13.32 -22.32 14.64 -23 16 C-23.66 16 -24.32 16 -25 16 C-25 17.32 -25 18.64 -25 20 C-25.66 20 -26.32 20 -27 20 C-27 18.35 -27 16.7 -27 15 C-27.99 15.33 -28.98 15.66 -30 16 C-30.33 17.98 -30.66 19.96 -31 22 C-29.515 22.99 -29.515 22.99 -28 24 C-27 25 -27 25 -26.9375 28.0625 C-26.958125 29.031875 -26.97875 30.00125 -27 31 C-26.34 31 -25.68 31 -25 31 C-24.34 28.03 -23.68 25.06 -23 22 C-22 29.625 -22 29.625 -22 33 C-19.525 33.99 -19.525 33.99 -17 35 C-13.21965377 31.52263974 -13.21965377 31.52263974 -11 27 C-11.66 27 -12.32 27 -13 27 C-13 26.01 -13 25.02 -13 24 C-16.08809695 22.23537317 -17.23312136 22 -21 22 C-21 21.34 -21 20.68 -21 20 C-20.01 20 -19.02 20 -18 20 C-14.80360753 16.09329809 -14.63456777 12.93333512 -15 8 C-15.33 7.01 -15.66 6.02 -16 5 C-19.3237877 3.89207077 -20.40238182 3.56390024 -23.3125 5.6875 Z M28 5 C26.7200081 9.57139965 26.65969224 13.15662859 28.4375 17.5625 C28.953125 18.366875 29.46875 19.17125 30 20 C30.99 20 31.98 20 33 20 C33 20.66 33 21.32 33 22 C31.8553125 22.2165625 31.8553125 22.2165625 30.6875 22.4375 C27.91827092 22.9632594 27.91827092 22.9632594 25 24 C23.79117904 26.00016466 23.79117904 26.00016466 23 28 C25.32197415 32.17728169 25.32197415 32.17728169 29 35 C31.47289462 35 32.90605842 34.27132167 35 33 C35 33.66 35 34.32 35 35 C33.02 35.66 31.04 36.32 29 37 C28.95101562 37.61488281 28.90203125 38.22976562 28.8515625 38.86328125 C28.77679688 39.67152344 28.70203125 40.47976562 28.625 41.3125 C28.55539063 42.11300781 28.48578125 42.91351563 28.4140625 43.73828125 C28 46 28 46 26 49 C26.639375 49.763125 27.27875 50.52625 27.9375 51.3125 C30 54 30 54 31 57 C33.01508358 57.73323796 33.01508358 57.73323796 35 58 C35 57.34 35 56.68 35 56 C36.32 56 37.64 56 39 56 C37.75 57.5 37.75 57.5 36 59 C34.68 59 33.36 59 32 59 C31.74605469 59.69867188 31.49210937 60.39734375 31.23046875 61.1171875 C30.71419922 62.48230469 30.71419922 62.48230469 30.1875 63.875 C29.85105469 64.77992188 29.51460938 65.68484375 29.16796875 66.6171875 C28 69 28 69 25 71 C28.4019487 73.09350689 31.05272412 73.17942163 35 73 C35.79953138 69.71303767 36.09658936 68.28976808 35 65 C35.66 65 36.32 65 37 65 C37 67.97 37 70.94 37 74 C33.535 74.495 33.535 74.495 30 75 C30.99 78.465 30.99 78.465 32 82 C36.40953207 81.83040261 38.37415574 81.67398613 41.4375 78.375 C43.17985231 74.61151901 43.3278718 72.09839745 43 68 C44.98 67.505 44.98 67.505 47 67 C47.33 65.35 47.66 63.7 48 62 C47.34 62 46.68 62 46 62 C45.525625 62.495 45.05125 62.99 44.5625 63.5 C43 65 43 65 40 65 C40.804375 64.5875 41.60875 64.175 42.4375 63.75 C45.14109718 62.26547669 45.14109718 62.26547669 45.8125 59.8125 C45.874375 59.214375 45.93625 58.61625 46 58 C47.11375 57.87625 48.2275 57.7525 49.375 57.625 C53.03103677 57.3534187 53.03103677 57.3534187 55 55 C54.67958603 52.39719432 54.67958603 52.39719432 54 50 C53.01 50 52.02 50 51 50 C49.61876037 51.96722008 48.28511874 53.96868328 47 56 C46.01 56.495 46.01 56.495 45 57 C45.495 56.46375 45.99 55.9275 46.5 55.375 C48.43102443 52.31754465 48.44522837 50.561827 48 47 C46.62073227 44.65738392 46.62073227 44.65738392 45 43 C45.99 43 46.98 43 48 43 C48.66 44.65 49.32 46.3 50 48 C50.33 48 50.66 48 51 48 C51 46.02 51 44.04 51 42 C50.34 41.67 49.68 41.34 49 41 C48.01 41.495 48.01 41.495 47 42 C47.33 40.68 47.66 39.36 48 38 C45.525 38.495 45.525 38.495 43 39 C42.67 41.97 42.34 44.94 42 48 C43.485 48.495 43.485 48.495 45 49 C44.67 49.99 44.34 50.98 44 52 C42.68 51.01 41.36 50.02 40 49 C39.01 49.99 38.02 50.98 37 52 C36.67 51.67 36.34 51.34 36 51 C36.825 50.34 37.65 49.68 38.5 49 C41.12479158 45.8502501 41.74899057 44.16309501 41.5 40.0703125 C40.58054613 36.26319883 38.56222544 33.92825764 36 31 C35.34 31 34.68 31 34 31 C34.495 26.545 34.495 26.545 35 22 C35.103125 23.11375 35.20625 24.2275 35.3125 25.375 C35.539375 26.57125 35.76625 27.7675 36 29 C36.99 29.66 37.98 30.32 39 31 C39.93065133 28.39417629 40.14917407 27.35801776 39.0625 24.75 C38.711875 24.1725 38.36125 23.595 38 23 C39.32 23.33 40.64 23.66 42 24 C42.68493373 21.14221967 42.68493373 21.14221967 43 18 C42.34 17.01 41.68 16.02 41 15 C40.34 15 39.68 15 39 15 C38.67 16.32 38.34 17.64 38 19 C37.67 18.01 37.34 17.02 37 16 C36.34 16 35.68 16 35 16 C35 15.01 35 14.02 35 13 C34.01 12.67 33.02 12.34 32 12 C33.65 12 35.3 12 37 12 C37.33 11.34 37.66 10.68 38 10 C36.95335182 7.33790071 36.95335182 7.33790071 35 5 C32.08670507 4.00521637 30.78002188 3.60998906 28 5 Z M6 17 C3.53713266 20.77126561 3.86130093 24.09630439 4 28.5 C4.14662013 33.15518904 4.08148391 35.90819402 2 40 C2.39648609 42.18033065 2.39648609 42.18033065 3.375 44.25 C3.67148437 44.95640625 3.96796875 45.6628125 4.2734375 46.390625 C4.51320312 46.92171875 4.75296875 47.4528125 5 48 C5.99 47.67 6.98 47.34 8 47 C8.87993491 45.27139285 8.87993491 45.27139285 9.3125 43.1875 C9.49425781 42.50042969 9.67601562 41.81335938 9.86328125 41.10546875 C10.19001494 38.97638216 10.19001494 38.97638216 9.04296875 37.24609375 C7.47837271 33.87664535 7.87002098 30.50791374 8 26.875 C8.09381659 24.22468132 8.09341789 21.6565713 8 19 C7.34 18.34 6.68 17.68 6 17 Z M-35.25 27.0625 C-37.37388366 30.62759043 -37.3200954 32.91878361 -37 37 C-34.69 37 -32.38 37 -30 37 C-28.89363605 34.60931266 -28.89363605 34.60931266 -28 32 C-28.33 31.34 -28.66 30.68 -29 30 C-31.02463255 29.34786708 -31.02463255 29.34786708 -33 29 C-32.01 28.67 -31.02 28.34 -30 28 C-29.67 27.01 -29.34 26.02 -29 25 C-33.01727705 24.54951691 -33.01727705 24.54951691 -35.25 27.0625 Z M41 25 C41.75150023 28.27773504 41.75150023 28.27773504 45 30 C43.68 30 42.36 30 41 30 C40.22757731 31.83700789 40.22757731 31.83700789 40 34 C41.01970318 35.93654948 41.01970318 35.93654948 43 37 C45.65466049 36.76956136 45.65466049 36.76956136 48 36 C48.33 36.66 48.66 37.32 49 38 C49.44894334 32.21299069 49.44894334 32.21299069 47.25 27 C45.00346023 24.55709077 45.00346023 24.55709077 41 25 Z M-25 32 C-28.93658218 38.0071142 -28.93658218 38.0071142 -29 45 C-27.15312312 47.91683876 -25.13913272 50.43043364 -22 52 C-24.96175123 51.38722388 -26.38058783 50.74627478 -29 49 C-29.99 49.99 -30.98 50.98 -32 52 C-31.49339844 51.15695313 -31.49339844 51.15695313 -30.9765625 50.296875 C-29.8310942 47.60273356 -29.9529974 46.11961767 -30.375 43.25 C-30.48585938 42.45078125 -30.59671875 41.6515625 -30.7109375 40.828125 C-30.80632813 40.22484375 -30.90171875 39.6215625 -31 39 C-33.475 38.01 -33.475 38.01 -36 37 C-35.67 38.32 -35.34 39.64 -35 41 C-35.99 41 -36.98 41 -38 41 C-38.33 42.98 -38.66 44.96 -39 47 C-36.75637427 47.2284549 -36.75637427 47.2284549 -34.875 45 C-33.946875 44.01 -33.946875 44.01 -33 43 C-33.515625 43.70125 -34.03125 44.4025 -34.5625 45.125 C-36.30443767 48.60887535 -35.94693195 50.2983569 -35 54 C-34.34 54 -33.68 54 -33 54 C-33 54.99 -33 55.98 -33 57 C-35.66666667 54.33333333 -38.33333333 51.66666667 -41 49 C-41.33 51.31 -41.66 53.62 -42 56 C-38.77208445 58.1519437 -37.71599191 58.20086443 -34 58 C-33.7525 58.763125 -33.505 59.52625 -33.25 60.3125 C-31.89004442 63.2364045 -30.68414174 64.30004356 -28 66 C-31.68564084 63.54420303 -31.68564084 63.54420303 -36 63 C-35.79623822 64.90584196 -35.79623822 64.90584196 -35 67 C-34.34 67.433125 -33.68 67.86625 -33 68.3125 C-30.07154399 70.78338476 -30.4548428 73.29628002 -30 77 C-29.02896212 79.46186579 -29.02896212 79.46186579 -27 81 C-23.39534252 81.81314911 -23.39534252 81.81314911 -20 82 C-19.34 79.69 -18.68 77.38 -18 75 C-19.98 74.67 -21.96 74.34 -24 74 C-24.98120464 70.94736336 -24.98120464 69.05263664 -24 66 C-24 67.98 -24 69.96 -24 72 C-20.33291043 72.94296589 -17.64653273 73.11421833 -14 72 C-13.67 71.34 -13.34 70.68 -13 70 C-13.62390625 69.76539063 -14.2478125 69.53078125 -14.890625 69.2890625 C-17.60255941 67.63176925 -17.88975997 66.3858401 -18.75 63.375 C-19.11351562 62.14910156 -19.11351562 62.14910156 -19.484375 60.8984375 C-19.65453125 60.27195312 -19.8246875 59.64546875 -20 59 C-21.32 59.33 -22.64 59.66 -24 60 C-24.66 58.68 -25.32 57.36 -26 56 C-24.824375 56.5259375 -24.824375 56.5259375 -23.625 57.0625 C-22.75875 57.371875 -21.8925 57.68125 -21 58 C-17.98801958 56.49400979 -17.42758242 53.97413004 -16 51 C-15.34 50.01 -14.68 49.02 -14 48 C-14.80972016 45.59915538 -14.80972016 45.59915538 -16 43 C-16.37593066 41.0075675 -16.71979545 39.0081326 -17 37 C-19.97 36.505 -19.97 36.505 -23 36 C-23 34.68 -23 33.36 -23 32 C-23.66 32 -24.32 32 -25 32 Z M15 51 C15 51.66 15 52.32 15 53 C15.99 52.67 16.98 52.34 18 52 C17.01 51.67 16.02 51.34 15 51 Z M11 56 C11 56.99 11 57.98 11 59 C14.20447416 61.34594772 14.20447416 61.34594772 18 62 C18 62.66 18 63.32 18 64 C17.05125 63.505 16.1025 63.01 15.125 62.5 C12.27721834 60.85575631 12.27721834 60.85575631 10 61 C11.24976756 64.65316671 11.67098753 65.78065836 15 68 C17.62531524 68.16713569 17.62531524 68.16713569 20 68 C20.33 67.01 20.66 66.02 21 65 C20.67 64.34 20.34 63.68 20 63 C20.66 63.33 21.32 63.66 22 64 C22.33 64.99 22.66 65.98 23 67 C23.99 66.67 24.98 66.34 26 66 C26 65.34 26 64.68 26 64 C25.34 64 24.68 64 24 64 C24.350625 63.443125 24.70125 62.88625 25.0625 62.3125 C26.23729128 59.41468152 25.93104132 57.9482975 25 55 C24.34 54.34 23.68 53.68 23 53 C18.48763697 53 14.95046662 53.80529632 11 56 Z M-41 59 C-42.36997745 60.15745487 -42.36997745 60.15745487 -42.3125 63.3125 C-41.94511806 67.64760684 -41.09172001 68.18934545 -38 71 C-37.25 73.75 -37.25 73.75 -37 76 C-35.35 76.33 -33.7 76.66 -32 77 C-32.06979378 73.51031121 -32.15779734 70.91669724 -34.58984375 68.26953125 C-35.83728996 67.23637028 -37.10918678 66.23185825 -38.40625 65.26171875 C-40 64 -40 64 -41 62 C-39.68 61.67 -38.36 61.34 -37 61 C-38.32 60.34 -39.64 59.68 -41 59 Z M51 59 C50.34 59.66 49.68 60.32 49 61 C51.475 61.495 51.475 61.495 54 62 C53.67 61.01 53.34 60.02 53 59 C52.34 59 51.68 59 51 59 Z M27 60 C28 63 28 63 28 63 Z M54 62 C54 62.66 54 63.32 54 64 C53.443125 64.061875 52.88625 64.12375 52.3125 64.1875 C48.80136066 65.42114355 47.32266555 67.08177918 45 70 C44.05254119 72.57514447 43.327004 75.12814927 42.67578125 77.79296875 C42 80 42 80 40 82 C37.8359375 82.6328125 37.8359375 82.6328125 35.375 83.125 C34.55773437 83.29257812 33.74046875 83.46015625 32.8984375 83.6328125 C32.27195312 83.75398438 31.64546875 83.87515625 31 84 C30.67 85.98 30.34 87.96 30 90 C30.99 90 31.98 90 33 90 C33 90.66 33 91.32 33 92 C32.38125 92.061875 31.7625 92.12375 31.125 92.1875 C28.72238859 92.828919 28.72238859 92.828919 27.75 95.5625 C27.5025 96.366875 27.255 97.17125 27 98 C28.65766798 99.65766798 30.60346405 99.21049503 32.875 99.25 C33.75929688 99.27578125 34.64359375 99.3015625 35.5546875 99.328125 C38.02860796 99.18559726 38.02860796 99.18559726 39.8203125 97.734375 C41.37494126 95.79835365 41.37494126 95.79835365 41 92 C40.01 92.33 39.02 92.66 38 93 C38 93.66 38 94.32 38 95 C34.535 95.495 34.535 95.495 31 96 C31 95.34 31 94.68 31 94 C32.65 93.67 34.3 93.34 36 93 C35.38722388 90.03824877 34.74627478 88.61941217 33 86 C34.051875 86.99 34.051875 86.99 35.125 88 C38.52460766 90.36494446 39.94587851 90.67568691 44 90 C46.69990662 88.20006226 48.5418865 86.916227 50 84 C50.039992 82.00039988 50.04346799 79.99952758 50 78 C48.35 78.33 46.7 78.66 45 79 C45 78.34 45 77.68 45 77 C45.9590625 76.7834375 45.9590625 76.7834375 46.9375 76.5625 C48.97545146 76.18992819 48.97545146 76.18992819 50 75 C50.04063832 73.33382885 50.042721 71.66611905 50 70 C50.639375 69.79375 51.27875 69.5875 51.9375 69.375 C54.34925077 68.10461791 54.34925077 68.10461791 54.75 64.875 C54.8325 63.92625 54.915 62.9775 55 62 C54.67 62 54.34 62 54 62 Z M-11 73 C-11.33 73.66 -11.66 74.32 -12 75 C-10.02 75 -8.04 75 -6 75 C-5.67 74.34 -5.34 73.68 -5 73 C-6.98 73 -8.96 73 -11 73 Z M-4 75 C-4 76.32 -4 77.64 -4 79 C-3.34 79 -2.68 79 -2 79 C-2 79.66 -2 80.32 -2 81 C-3.32 81 -4.64 81 -6 81 C-6.33 79.68 -6.66 78.36 -7 77 C-9.97 77 -12.94 77 -16 77 C-16.33 78.32 -16.66 79.64 -17 81 C-16.38125 80.690625 -15.7625 80.38125 -15.125 80.0625 C-13.75 79.375 -12.375 78.6875 -11 78 C-11.33 80.31 -11.66 82.62 -12 85 C-11.38125 85.0825 -10.7625 85.165 -10.125 85.25 C-8 86 -8 86 -6.75 88.0625 C-6.5025 88.701875 -6.255 89.34125 -6 90 C-3.55519921 89.81171228 -3.55519921 89.81171228 -1 89 C1.65584884 85.7118062 1.29531041 82.06051813 1 78 C0.34 77.01 -0.32 76.02 -1 75 C-1.99 75 -2.98 75 -4 75 Z M-32 77 C-32.99 77.33 -33.98 77.66 -35 78 C-35.99 78 -36.98 78 -38 78 C-37.75307684 82.19769372 -37.3525648 84.52655584 -34.8125 87.9375 C-32.15663568 90.21217496 -32.15663568 90.21217496 -28.9375 90.5 C-25.77961005 89.96248682 -24.32893595 89.14978703 -22 87 C-21.67 87.66 -21.34 88.32 -21 89 C-21.99 89.33 -22.98 89.66 -24 90 C-23.67 91.32 -23.34 92.64 -23 94 C-21.68 94 -20.36 94 -19 94 C-19 94.66 -19 95.32 -19 96 C-21.02045442 95.39816251 -23.02111039 94.72693904 -25 94 C-25.33 93.34 -25.66 92.68 -26 92 C-26.99 92 -27.98 92 -29 92 C-28.72965366 94.43717258 -28.72965366 94.43717258 -28 97 C-24.79619983 99.13586678 -23.98060033 99.23132175 -20.3125 99.125 C-19.50425781 99.10695313 -18.69601563 99.08890625 -17.86328125 99.0703125 C-17.24839844 99.04710937 -16.63351563 99.02390625 -16 99 C-15.67 98.34 -15.34 97.68 -15 97 C-15.89363605 94.39068734 -15.89363605 94.39068734 -17 92 C-18.32 92 -19.64 92 -21 92 C-21 91.34 -21 90.68 -21 90 C-20.01 90 -19.02 90 -18 90 C-18.33 88.02 -18.66 86.04 -19 84 C-19.68707031 83.82984375 -20.37414062 83.6596875 -21.08203125 83.484375 C-21.98308594 83.24203125 -22.88414063 82.9996875 -23.8125 82.75 C-24.70582031 82.51796875 -25.59914063 82.2859375 -26.51953125 82.046875 C-29.37646099 80.84111568 -30.38369034 79.59898297 -32 77 Z M-16 83 C-15.66275164 86.11954738 -15.3790035 87.6209965 -13.125 89.875 C-12.42375 90.24625 -11.7225 90.6175 -11 91 C-10.01 90.67 -9.02 90.34 -8 90 C-8.82719145 87.82890503 -8.82719145 87.82890503 -11 87.0625 C-13 86 -13 86 -14 83 C-14.66 83 -15.32 83 -16 83 Z M-15 92 C-14.34 93.32 -13.68 94.64 -13 96 C-12.67 95.01 -12.34 94.02 -12 93 C-12.99 92.67 -13.98 92.34 -15 92 Z M25 92 C24.67 93.32 24.34 94.64 24 96 C24.99 95.67 25.98 95.34 27 95 C27 94.01 27 93.02 27 92 C26.34 92 25.68 92 25 92 Z M-10 94 C-8.68 95.32 -7.36 96.64 -6 98 C-6.763125 97.79375 -7.52625 97.5875 -8.3125 97.375 C-11.21885944 96.66608797 -11.21885944 96.66608797 -14 99 C-13.05275873 101.36810318 -12.34708866 102.75207953 -10.25 104.25 C-6.15721103 105.61426299 -3.10336806 105.45573898 0.875 103.8125 C3.28932094 102.1697501 3.28932094 102.1697501 3.3125 99.3125 C3.209375 98.549375 3.10625 97.78625 3 97 C1.35 97.33 -0.3 97.66 -2 98 C-1.01 96.68 -0.02 95.36 1 94 C-2.63 94 -6.26 94 -10 94 Z M11 94 C11.99 95.32 12.98 96.64 14 98 C12.35 97.67 10.7 97.34 9 97 C8.58219121 99.37305578 8.58219121 99.37305578 9 102 C11.81103484 104.47030334 13.7869792 104.9733724 17.5 105.4375 C21.5318497 104.93351879 23.12273928 103.790071 26 101 C25.67 100.01 25.34 99.02 25 98 C22.69 98 20.38 98 18 98 C19.32 96.68 20.64 95.36 22 94 C18.37 94 14.74 94 11 94 Z " fill="#454DB3" transform="translate(53,182)"/>
<path d="M0 0 C0.66 0.33 1.32 0.66 2 1 C1.67 1.66 1.34 2.32 1 3 C1.66 3 2.32 3 3 3 C3 3.66 3 4.32 3 5 C1.783125 5.165 0.56625 5.33 -0.6875 5.5 C-4.22110136 6.40540675 -5.93818458 7.52355806 -8.0625 10.5 C-10.74007607 15.35533794 -10.09067975 19.73018102 -9 25 C-7.68 25.33 -6.36 25.66 -5 26 C-5 25.34 -5 24.68 -5 24 C-4.01 24 -3.02 24 -2 24 C-2 24.66 -2 25.32 -2 26 C0.97 26.33 3.94 26.66 7 27 C7.33 26.34 7.66 25.68 8 25 C8.9590625 25.2165625 8.9590625 25.2165625 9.9375 25.4375 C13.93844788 26.17236798 17.95504896 26.58581111 22 27 C22 26.01 22 25.02 22 24 C24.31 24.33 26.62 24.66 29 25 C30.63113712 21.73772575 30.52986893 18.52424453 30 15 C28.8207709 11.84804184 27.39427664 9.37721529 25 7 C22.24278246 5.76664206 20.03751214 5.41186605 17 5 C17 4.34 17 3.68 17 3 C17.66 3 18.32 3 19 3 C19.33 2.01 19.66 1.02 20 0 C24.94407173 3.23266229 28.12308945 5.82156101 31 11 C31 11.66 31 12.32 31 13 C31.928125 12.835 32.85625 12.67 33.8125 12.5 C37 12 37 12 40 12 C39.67 12.99 39.34 13.98 39 15 C37.02 15.33 35.04 15.66 33 16 C33.02320313 16.61488281 33.04640625 17.22976562 33.0703125 17.86328125 C33.08835938 18.67152344 33.10640625 19.47976562 33.125 20.3125 C33.14820313 21.11300781 33.17140625 21.91351563 33.1953125 22.73828125 C33 25 33 25 31 28 C31.66 28.763125 32.32 29.52625 33 30.3125 C35 33 35 33 35 36 C36.32 36.33 37.64 36.66 39 37 C39 36.34 39 35.68 39 35 C41.97 34.505 41.97 34.505 45 34 C44.360625 34.268125 43.72125 34.53625 43.0625 34.8125 C40.66868314 35.88667752 40.66868314 35.88667752 40 39 C39.01 39 38.02 39 37 39 C36.74605469 39.62648437 36.49210937 40.25296875 36.23046875 40.8984375 C35.88628906 41.71570313 35.54210937 42.53296875 35.1875 43.375 C34.85105469 44.18710938 34.51460937 44.99921875 34.16796875 45.8359375 C33 48 33 48 30 50 C33.153368 50.70074844 35.72724974 51 39 51 C39 48.69 39 46.38 39 44 C39.66 44 40.32 44 41 44 C41.495 48.455 41.495 48.455 42 53 C40.02253397 53.73080266 38.01927511 54.39421747 36 55 C35.01 54.505 35.01 54.505 34 54 C34.02320313 54.72445312 34.04640625 55.44890625 34.0703125 56.1953125 C34.17018794 61.54578244 34.16455748 65.99446082 32 71 C31.113125 70.979375 30.22625 70.95875 29.3125 70.9375 C26.09257221 70.8927425 26.09257221 70.8927425 23.375 71.5625 C21 72 21 72 18.875 71.4375 C18.25625 71.293125 17.6375 71.14875 17 71 C16.01 71.66 15.02 72.32 14 73 C13.01 72.01 13.01 72.01 12 71 C10.00041636 70.95919217 7.99954746 70.95745644 6 71 C5.505 70.505 5.505 70.505 5 70 C4.67 70.66 4.34 71.32 4 72 C1.03 72 -1.94 72 -5 72 C-4.505 71.01 -4.505 71.01 -4 70 C-1.6859378 69.26924352 0.64828869 68.59861742 3 68 C4.69057861 62.71694183 4.29188056 57.32900731 3 52 C1.02 52.495 1.02 52.495 -1 53 C-1.33 52.34 -1.66 51.68 -2 51 C-5.02934491 50.34227572 -5.02934491 50.34227572 -8 50 C-7.525625 49.5875 -7.05125 49.175 -6.5625 48.75 C-4.83733482 46.817815 -4.43415125 45.51807725 -4 43 C-5.66611905 42.957279 -7.33382885 42.95936168 -9 43 C-9.495 43.495 -9.495 43.495 -10 44 C-12 43.75 -12 43.75 -14 43 C-15.20643566 39.38069302 -15.32268559 36.80768995 -15 33 C-14.29875 31.96875 -13.5975 30.9375 -12.875 29.875 C-12.25625 28.92625 -11.6375 27.9775 -11 27 C-11.68931667 24.44288628 -11.68931667 24.44288628 -13 22 C-13.125 18.6875 -13.125 18.6875 -13 16 C-15.97 15.505 -15.97 15.505 -19 15 C-18.67 13.68 -18.34 12.36 -18 11 C-15.525 11.99 -15.525 11.99 -13 13 C-10.61420029 10.70256324 -8.4739889 8.35423732 -6.4375 5.75 C-5.633125 4.8425 -4.82875 3.935 -4 3 C-3.01 3 -2.02 3 -1 3 C-0.67 2.01 -0.34 1.02 0 0 Z M19 30 C19 30.66 19 31.32 19 32 C19.99 31.67 20.98 31.34 22 31 C21.01 30.67 20.02 30.34 19 30 Z M15 35 C15 35.99 15 36.98 15 38 C18.20447416 40.34594772 18.20447416 40.34594772 22 41 C22 41.66 22 42.32 22 43 C21.05125 42.505 20.1025 42.01 19.125 41.5 C16.27721834 39.85575631 16.27721834 39.85575631 14 40 C15.24976756 43.65316671 15.67098753 44.78065836 19 47 C21.62531524 47.16713569 21.62531524 47.16713569 24 47 C24.33 46.01 24.66 45.02 25 44 C24.67 43.34 24.34 42.68 24 42 C24.66 42.33 25.32 42.66 26 43 C26.33 43.99 26.66 44.98 27 46 C27.99 45.67 28.98 45.34 30 45 C30 44.34 30 43.68 30 43 C29.34 43 28.68 43 28 43 C28.350625 42.443125 28.70125 41.88625 29.0625 41.3125 C30.23729128 38.41468152 29.93104132 36.9482975 29 34 C28.34 33.34 27.68 32.68 27 32 C22.48763697 32 18.95046662 32.80529632 15 35 Z M31 39 C32 42 32 42 32 42 Z " fill="#4F45E3" transform="translate(49,203)"/>
<path d="M0 0 C3.63 0 7.26 0 11 0 C11.33 4.95 11.66 9.9 12 15 C13.32 14.34 14.64 13.68 16 13 C22.38452627 12.31530846 28.66709645 12.06380928 34 16 C38.79179112 20.79179112 41.12864191 24.32145319 41.3125 31.25 C41.23921085 37.42257473 39.98577315 41.07516099 35.46875 45.5 C30.95481434 49.39437586 28.50758574 50.15445177 22.625 50.1875 C20.91183594 50.20876953 20.91183594 50.20876953 19.1640625 50.23046875 C16.16063184 50.01170034 14.52074066 49.57080637 12 48 C11.67 48.66 11.34 49.32 11 50 C7.37 50 3.74 50 0 50 C0 33.5 0 17 0 0 Z M15 26 C13.43064406 29.13871188 13.64798897 31.53855822 14 35 C16.45000447 38.38677089 17.86392446 39.78698584 22 40.5625 C25.80470451 39.8491179 27.41196019 38.88381579 30 36 C31.27176524 31.88546541 31.50686067 29.97148295 29.5 26.125 C24.61586089 21.97348176 19.94965652 22.06939041 15 26 Z " fill="#4E45DF" transform="translate(256,213)"/>
<path d="M0 0 C1.5778125 0.01353516 1.5778125 0.01353516 3.1875 0.02734375 C4.115625 0.03894531 5.04375 0.05054688 6 0.0625 C6.99 0.0625 7.98 0.0625 9 0.0625 C12.63 0.0625 16.26 0.0625 20 0.0625 C20 12.2725 20 24.4825 20 37.0625 C16.37 37.0625 12.74 37.0625 9 37.0625 C9 36.4025 9 35.7425 9 35.0625 C8.44957031 35.38476562 7.89914062 35.70703125 7.33203125 36.0390625 C2.61066265 38.11108691 -3.27065553 37.98727789 -8.1328125 36.33984375 C-12.85734993 33.81395469 -15.6928727 30.41532914 -18.25 25.8125 C-20.01816534 19.3292271 -19.57766909 13.7396787 -16.27734375 7.85546875 C-12.0028286 1.85546124 -7.24071558 -0.07986083 0 0 Z M-8 14.0625 C-9.25329784 16.91539698 -9.25329784 16.91539698 -9 20.0625 C-6.75278859 24.3045814 -6.75278859 24.3045814 -3 27.0625 C1.0130324 27.59757099 2.53928033 27.39301628 5.875 25 C8.24108907 22.17723938 8.24108907 22.17723938 8.625 18.5625 C7.83397068 14.1327358 6.63525215 12.67039828 3 10.0625 C-1.98779194 9.12728901 -4.59825854 10.3691807 -8 14.0625 Z " fill="#4E45E4" transform="translate(342,225.9375)"/>
<path d="M0 0 C0.99 0 1.98 0 3 0 C6.63 0 10.26 0 14 0 C14 12.21 14 24.42 14 37 C9.33333333 37 4.66666667 37 0 37 C-0.89332031 37.04640625 -1.78664063 37.0928125 -2.70703125 37.140625 C-9.01166003 37.36267482 -13.14929665 37.49577384 -18 33 C-23.51515607 27.09305688 -24.41966421 23.36623433 -24.33984375 15.33984375 C-23.6818884 8.87373083 -20.85001883 5.51021945 -15.9375 1.5 C-10.97767679 -0.99633486 -5.39145535 -0.28376081 0 0 Z M-11.9375 12.0625 C-14.22630433 14.89953719 -14.22630433 14.89953719 -14.6875 18.5 C-14.2593629 22.19321382 -14.2593629 22.19321382 -11.4375 25 C-8.13991621 27.28116946 -8.13991621 27.28116946 -4.375 27.125 C-0.3196409 25.77321363 1.02446313 24.78644566 3 21 C3 17.07983866 2.55226285 14.82839428 0.375 11.5625 C-4.10991521 8.61189789 -7.63564378 9.04204776 -11.9375 12.0625 Z " fill="#4E45E5" transform="translate(444,226)"/>
<path d="M0 0 C4.92565779 2.82923847 7.43022581 5.89756347 9.57421875 11.12890625 C10.06921875 16.07890625 10.06921875 16.07890625 10.57421875 21.12890625 C1.99421875 21.45890625 -6.58578125 21.78890625 -15.42578125 22.12890625 C-11.17553823 25.31658851 -10.4243547 25.63896477 -5.42578125 25.12890625 C-4.64203125 24.73703125 -3.85828125 24.34515625 -3.05078125 23.94140625 C0.96285027 22.69909173 3.88097229 24.42433096 7.57421875 26.12890625 C6.22266593 30.55217003 4.37531437 32.53303607 0.57421875 35.12890625 C-5.64038736 37.20044162 -12.98461945 37.2623028 -18.92578125 34.50390625 C-24.2622404 29.43427006 -27.53601335 25.50121227 -27.73828125 17.87890625 C-27.6648422 11.69370657 -26.39349512 8.10436872 -21.9296875 3.62890625 C-15.86149322 -1.69778798 -7.62861827 -2.73942331 0 0 Z M-16.42578125 14.12890625 C-11.47578125 14.12890625 -6.52578125 14.12890625 -1.42578125 14.12890625 C-2.10112642 11.09045388 -2.10112642 11.09045388 -4.17578125 9.94140625 C-10.49670824 7.65884928 -11.36580443 9.06892943 -16.42578125 14.12890625 Z " fill="#4B43DD" transform="translate(181.42578125,226.87109375)"/>
<path d="M0 0 C4.96987013 2.92014968 8.21662243 6.58662617 10.32421875 12.03125 C10.68785804 15.03127416 10.57421875 18.07176746 10.57421875 21.09375 C1.99421875 21.42375 -6.58578125 21.75375 -15.42578125 22.09375 C-11.17553823 25.28143226 -10.4243547 25.60380852 -5.42578125 25.09375 C-4.64203125 24.701875 -3.85828125 24.31 -3.05078125 23.90625 C0.96285027 22.66393548 3.88097229 24.38917471 7.57421875 26.09375 C6.22139706 30.52116644 4.34122987 32.45684221 0.57421875 35.09375 C-4.07403648 37.41787762 -10.36700201 36.50859294 -15.42578125 36.09375 C-20.71283107 33.63253715 -23.86513115 29.90292019 -26.67578125 24.84375 C-28.44394659 18.3604771 -28.00345034 12.7709287 -24.703125 6.88671875 C-19.00373586 -1.11334124 -9.16606066 -3.4243576 0 0 Z M-15.42578125 12.09375 C-15.42578125 12.75375 -15.42578125 13.41375 -15.42578125 14.09375 C-10.80578125 14.09375 -6.18578125 14.09375 -1.42578125 14.09375 C-2.92578125 10.09375 -2.92578125 10.09375 -5.42578125 9.09375 C-9.8102599 8.71249099 -12.24967456 8.91764331 -15.42578125 12.09375 Z " fill="#4D45DE" transform="translate(243.42578125,226.90625)"/>
<path d="M0 0 C-0.92028884 4.37606735 -2.20582082 6.41995816 -6 9 C-8.84585979 8.73649446 -11.49412429 8.0967441 -14.2734375 7.4375 C-18.50592746 6.75836121 -20.40072761 7.75045476 -24 10 C-27.38300001 12.93193334 -27.70908693 16.53419531 -28.08203125 20.8125 C-27.96858824 23.83764695 -26.80069206 25.62308648 -25 28 C-25 28.66 -25 29.32 -25 30 C-20.39654218 32.37597823 -16.05942125 32.37922536 -11 32 C-10.113125 31.71125 -9.22625 31.4225 -8.3125 31.125 C-6 31 -6 31 -4.3671875 32.26953125 C-2.83338879 33.79262904 -1.39326902 35.34818622 0 37 C-0.96740632 40.11719813 -2.00765945 41.00476588 -4.8125 42.75 C-10.88490107 45.049382 -18.15159248 45.06512762 -24.37109375 43.34375 C-30.09759441 40.75398752 -35.2397577 36.47054865 -38.1015625 30.828125 C-40.86756155 23.33149206 -40.80784173 16.65167769 -38.03515625 9.171875 C-34.80351695 2.39152991 -29.91042726 -1.34882979 -23 -4 C-14.98192257 -6.74302649 -6.99976294 -4.01838243 0 0 Z " fill="#4D44E1" transform="translate(154,219)"/>
<path d="M0 0 C3.80635497 3.20760251 7.54563567 6.40746109 11 10 C14.45201639 8.52278578 16.64961936 6.56205999 19.25 3.875 C20.30960937 2.78832031 20.30960937 2.78832031 21.390625 1.6796875 C21.92171875 1.12539062 22.4528125 0.57109375 23 0 C24.17825358 0.90172468 25.34231577 1.82201502 26.5 2.75 C27.47453125 3.51570312 27.47453125 3.51570312 28.46875 4.296875 C30 6 30 6 30 10 C28.03125 12.359375 28.03125 12.359375 25.5 14.75 C24.24703125 15.94882813 24.24703125 15.94882813 22.96875 17.171875 C21.99421875 18.07679688 21.99421875 18.07679688 21 19 C24.20760251 22.80635497 27.40746109 26.54563567 31 30 C29.56036361 33.35915158 27.87583411 35.71624938 25 38 C21.1437333 37.70956987 19.3313171 35.64788295 16.75 32.9375 C16.04359375 32.20402344 15.3371875 31.47054688 14.609375 30.71484375 C14.07828125 30.14894531 13.5471875 29.58304688 13 29 C8.93347371 30.7568107 6.66797922 33.36290539 3.78125 36.63671875 C2 38 2 38 -0.046875 37.8671875 C-3.00045951 36.55579598 -4.83317906 34.34738935 -7 32 C-5.52278578 28.54798361 -3.56205999 26.35038064 -0.875 23.75 C-0.15054687 23.04359375 0.57390625 22.3371875 1.3203125 21.609375 C1.87460937 21.07828125 2.42890625 20.5471875 3 20 C-0.20760251 16.19364503 -3.40746109 12.45436433 -7 9 C-5.44499019 5.18315774 -2.96404505 2.80804268 0 0 Z " fill="#4E45E0" transform="translate(372,225)"/>
<path d="M0 0 C0 3.63 0 7.26 0 11 C-1.423125 11.53625 -2.84625 12.0725 -4.3125 12.625 C-7.54949192 13.84473609 -8.79184973 14.69149156 -10.75 17.59375 C-12.28327954 21.77193675 -12.55653763 25.45969716 -12.6875 29.875 C-12.72166016 30.65875 -12.75582031 31.4425 -12.79101562 32.25 C-12.87280412 34.16618748 -12.9380946 36.08306715 -13 38 C-16.63 38 -20.26 38 -24 38 C-24 25.79 -24 13.58 -24 1 C-20.37 1 -16.74 1 -13 1 C-12.67 1.66 -12.34 2.32 -12 3 C-11.319375 2.505 -10.63875 2.01 -9.9375 1.5 C-6.40534991 -0.30365111 -3.91363009 -0.23021353 0 0 Z " fill="#4D45DC" transform="translate(323,225)"/>
<path d="M0 0 C0 3.63 0 7.26 0 11 C-1.423125 11.53625 -2.84625 12.0725 -4.3125 12.625 C-7.54949192 13.84473609 -8.79184973 14.69149156 -10.75 17.59375 C-12.28327954 21.77193675 -12.55653763 25.45969716 -12.6875 29.875 C-12.72166016 30.65875 -12.75582031 31.4425 -12.79101562 32.25 C-12.87280412 34.16618748 -12.9380946 36.08306715 -13 38 C-16.63 38 -20.26 38 -24 38 C-24 25.79 -24 13.58 -24 1 C-20.37 1 -16.74 1 -13 1 C-12.67 1.66 -12.34 2.32 -12 3 C-11.319375 2.505 -10.63875 2.01 -9.9375 1.5 C-6.40534991 -0.30365111 -3.91363009 -0.23021353 0 0 Z " fill="#4E45DF" transform="translate(217,225)"/>
<path d="M0 0 C3.71599191 -0.20086443 4.77208445 -0.1519437 8 2 C8.66 2 9.32 2 10 2 C10.268125 3.134375 10.53625 4.26875 10.8125 5.4375 C11.204375 6.613125 11.59625 7.78875 12 9 C12.99 9.33 13.98 9.66 15 10 C14.67 9.01 14.34 8.02 14 7 C14.66 7 15.32 7 16 7 C16 7.66 16 8.32 16 9 C17.65 9 19.3 9 21 9 C21.495 11.475 21.495 11.475 22 14 C21.34 14.33 20.68 14.66 20 15 C21.32 15.66 22.64 16.32 24 17 C24 17.33 24 17.66 24 18 C21.03 18.495 21.03 18.495 18 19 C21.3 18.67 24.6 18.34 28 18 C28 18.66 28 19.32 28 20 C27.01 20.33 26.02 20.66 25 21 C25 21.66 25 22.32 25 23 C25.66 23.33 26.32 23.66 27 24 C27 24.66 27 25.32 27 26 C25.68 26 24.36 26 23 26 C22.505 24.02 22.505 24.02 22 22 C19.03 22 16.06 22 13 22 C13.33 22.99 13.66 23.98 14 25 C15.32 24.34 16.64 23.68 18 23 C17.67 25.31 17.34 27.62 17 30 C18.175625 30.0928125 18.175625 30.0928125 19.375 30.1875 C20.24125 30.455625 21.1075 30.72375 22 31 C23.3125 33.5625 23.3125 33.5625 24 36 C23.01 36.33 22.02 36.66 21 37 C20.505 35.02 20.505 35.02 20 33 C18.68 32.67 17.36 32.34 16 32 C15.67 30.68 15.34 29.36 15 28 C14.34 28 13.68 28 13 28 C14.78809729 32.33970917 14.78809729 32.33970917 18.1875 35.375 C18.785625 35.58125 19.38375 35.7875 20 36 C20 36.66 20 37.32 20 38 C22.97 38 25.94 38 29 38 C29.33 37.01 29.66 36.02 30 35 C31.33333333 35.33333333 32.66666667 35.66666667 34 36 C34.639375 36.103125 35.27875 36.20625 35.9375 36.3125 C38.85305961 37.2843532 40.75253621 38.93982486 43 41 C43 41.66 43 42.32 43 43 C41.02 43 39.04 43 37 43 C37 41.68 37 40.36 37 39 C35.68 39 34.36 39 33 39 C33 39.99 33 40.98 33 42 C30.03 42.495 30.03 42.495 27 43 C27.33 42.01 27.66 41.02 28 40 C25.36 40 22.72 40 20 40 C21.32 41.32 22.64 42.64 24 44 C23.071875 43.79375 22.14375 43.5875 21.1875 43.375 C17.84826598 42.63307034 17.84826598 42.63307034 15 45 C13.515 44.505 13.515 44.505 12 44 C12.33 43.34 12.66 42.68 13 42 C12.72057545 40.32345271 12.39171753 38.65391846 12 37 C10.68 37 9.36 37 8 37 C8 36.34 8 35.68 8 35 C8.99 35 9.98 35 11 35 C10.67 33.02 10.34 31.04 10 29 C8.7625 28.9175 7.525 28.835 6.25 28.75 C3.4542367 28.37525924 2.09548556 28.06193658 -0.3125 26.5 C-1.9457119 24.08042682 -2.5297624 22.3925365 -3.3125 19.625 C-4.65678879 15.04082417 -6.76189949 12.96184944 -10.57421875 10.19140625 C-11.04472656 9.79824219 -11.51523438 9.40507812 -12 9 C-12 8.34 -12 7.68 -12 7 C-9 5 -9 5 -6 4 C-6 6.64 -6 9.28 -6 12 C-3.525 12.99 -3.525 12.99 -1 14 C-0.8046875 15.98567708 -0.609375 17.97135417 -0.4140625 19.95703125 C-0.07334609 22.29988142 -0.07334609 22.29988142 2 25 C5.55672179 26.2188121 5.55672179 26.2188121 9 27 C9.33 25.02 9.66 23.04 10 21 C9.21625 20.87625 8.4325 20.7525 7.625 20.625 C5 20 5 20 3 18 C3.25 14.4375 3.25 14.4375 4 11 C4.66 10.67 5.32 10.34 6 10 C6 12.31 6 14.62 6 17 C8.64 17 11.28 17 14 17 C14 16.34 14 15.68 14 15 C13.01 14.34 12.02 13.68 11 13 C10.05078125 11.0546875 10.05078125 11.0546875 9.3125 8.875 C9.06113281 8.15054688 8.80976562 7.42609375 8.55078125 6.6796875 C8.36902344 6.12539062 8.18726562 5.57109375 8 5 C7.01 5 6.02 5 5 5 C4.34 4.01 3.68 3.02 3 2 C2.01 1.34 1.02 0.68 0 0 Z M14 37 C14.66 38.32 15.32 39.64 16 41 C16.33 40.01 16.66 39.02 17 38 C16.01 37.67 15.02 37.34 14 37 Z " fill="#4245C5" transform="translate(24,237)"/>
<path d="M0 0 C5.41882872 2.9724643 9.06082418 5.48904533 12 11 C12 11.66 12 12.32 12 13 C12.928125 12.835 13.85625 12.67 14.8125 12.5 C18 12 18 12 21 12 C20.67 12.99 20.34 13.98 20 15 C18.02 15.33 16.04 15.66 14 16 C14.02320312 16.61488281 14.04640625 17.22976562 14.0703125 17.86328125 C14.09738281 19.07564453 14.09738281 19.07564453 14.125 20.3125 C14.14820312 21.11300781 14.17140625 21.91351563 14.1953125 22.73828125 C14 25 14 25 12 28 C12.66 28.763125 13.32 29.52625 14 30.3125 C16 33 16 33 16 36 C17.32 36.33 18.64 36.66 20 37 C20 36.34 20 35.68 20 35 C22.97 34.505 22.97 34.505 26 34 C25.360625 34.268125 24.72125 34.53625 24.0625 34.8125 C21.66868314 35.88667752 21.66868314 35.88667752 21 39 C20.01 39 19.02 39 18 39 C17.78085938 39.62648437 17.56171875 40.25296875 17.3359375 40.8984375 C14.72015656 47.63992172 14.72015656 47.63992172 11 49.5 C9.515 49.7475 9.515 49.7475 8 50 C7.278125 50.20625 6.55625 50.4125 5.8125 50.625 C4 51 4 51 1 51 C-2.15035929 48.29969203 -4.52758009 46.25177923 -5 42 C-4.278125 42.66 -3.55625 43.32 -2.8125 44 C0.21597933 46.1535853 1.39703406 46.41176754 5 46 C5 44.68 5 43.36 5 42 C5.99 42.33 6.98 42.66 8 43 C8 43.99 8 44.98 8 46 C8.99 45.01 9.98 44.02 11 43 C10.34 43 9.68 43 9 43 C9.309375 41.3603125 9.309375 41.3603125 9.625 39.6875 C10.40346525 35.9161599 10.40346525 35.9161599 8 33 C6.37399059 33.0870005 4.74910322 33.1951781 3.125 33.3125 C2.22007813 33.37050781 1.31515625 33.42851562 0.3828125 33.48828125 C-2.36221601 33.7882039 -2.36221601 33.7882039 -4 37 C-0.535 38.98 -0.535 38.98 3 41 C3 41.66 3 42.32 3 43 C1.046875 42.44661458 -0.90625 41.89322917 -2.859375 41.33984375 C-5.21958796 40.96513841 -6.74419051 41.27346676 -9 42 C-9 40.68 -9 39.36 -9 38 C-8.319375 37.34 -7.63875 36.68 -6.9375 36 C-6.298125 35.34 -5.65875 34.68 -5 34 C-5.25723969 31.97080157 -5.25723969 31.97080157 -6 30 C-5.5625 27.75 -5.5625 27.75 -5 26 C-2.36 26.33 0.28 26.66 3 27 C3 26.01 3 25.02 3 24 C5.31 24.33 7.62 24.66 10 25 C11.63113712 21.73772575 11.52986893 18.52424453 11 15 C9.8207709 11.84804184 8.39427664 9.37721529 6 7 C3.24278246 5.76664206 1.03751214 5.41186605 -2 5 C-2 4.34 -2 3.68 -2 3 C-1.34 3 -0.68 3 0 3 C0 2.01 0 1.02 0 0 Z M0 30 C0 30.66 0 31.32 0 32 C0.99 31.67 1.98 31.34 3 31 C2.01 30.67 1.02 30.34 0 30 Z M12 39 C13 42 13 42 13 42 Z " fill="#4544CC" transform="translate(68,203)"/>
<path d="M0 0 C3.63 0 7.26 0 11 0 C11 12.21 11 24.42 11 37 C7.37 37 3.74 37 0 37 C0 24.79 0 12.58 0 0 Z " fill="#4E45E5" transform="translate(462,226)"/>
<path d="M0 0 C0.99 0 1.98 0 3 0 C6.63 0 10.26 0 14 0 C14 12.21 14 24.42 14 37 C9.33333333 37 4.66666667 37 0 37 C-0.89332031 37.04640625 -1.78664063 37.0928125 -2.70703125 37.140625 C-9.01166003 37.36267482 -13.14929665 37.49577384 -18 33 C-23.51515607 27.09305688 -24.41966421 23.36623433 -24.33984375 15.33984375 C-23.6818884 8.87373083 -20.85001883 5.51021945 -15.9375 1.5 C-10.97767679 -0.99633486 -5.39145535 -0.28376081 0 0 Z M4 1 C4.33 2.32 4.66 3.64 5 5 C4.34 5 3.68 5 3 5 C2.67 4.34 2.34 3.68 2 3 C-0.3727086 2.07533247 -0.3727086 2.07533247 -3 2 C-4.89661743 3.14646548 -4.89661743 3.14646548 -6 5 C-6 5.99 -6 6.98 -6 8 C-4.35 8.66 -2.7 9.32 -1 10 C-2.50014467 10 -4.00009446 9.96428403 -5.5 9.9375 C-8.82311997 9.59166358 -8.82311997 9.59166358 -10 11 C-10.33 10.34 -10.66 9.68 -11 9 C-10.34 9 -9.68 9 -9 9 C-9.70339566 6.49034386 -9.70339566 6.49034386 -11 4 C-13.04105639 3.11306697 -13.04105639 3.11306697 -15 3 C-15.928125 4.2065625 -15.928125 4.2065625 -16.875 5.4375 C-19 8 -19 8 -21 9 C-22.95558891 12.06718682 -23.24721573 14.4632703 -23.1875 18.0625 C-23.18105469 18.91972656 -23.17460937 19.77695313 -23.16796875 20.66015625 C-23.08590034 23.15477968 -23.08590034 23.15477968 -22 26 C-21.34 26 -20.68 26 -20 26 C-19.95875 26.763125 -19.9175 27.52625 -19.875 28.3125 C-19.23367013 31.18888105 -19.23367013 31.18888105 -16.625 32.6875 C-11.90250469 34.39736899 -7.05282994 35.92367326 -2 36 C0.17525813 34.64213999 0.17525813 34.64213999 2 33 C4.75 32.3125 4.75 32.3125 7 32 C6.67 32.66 6.34 33.32 6 34 C8.31 34.33 10.62 34.66 13 35 C13 24.11 13 13.22 13 2 C10.03 1.67 7.06 1.34 4 1 Z " fill="#4A43CD" transform="translate(444,226)"/>
<path d="M0 0 C5.67743276 2.11762765 9.15611154 5.6534897 12 11 C13.47333717 14.80612102 13 17.60053092 13 22 C4.09 22 -4.82 22 -14 22 C-13.67 21.34 -13.34 20.68 -13 20 C-9.83984375 19.5859375 -9.83984375 19.5859375 -5.9375 19.375 C-4.64714844 19.30023438 -3.35679687 19.22546875 -2.02734375 19.1484375 C-1.02832031 19.09945312 -0.02929688 19.05046875 1 19 C-0.91683709 17.08316291 -4.36557292 17.57249695 -6.96875 17.37890625 C-7.97421875 17.19134766 -7.97421875 17.19134766 -9 17 C-9.33 16.34 -9.66 15.68 -10 15 C-6.37 15 -2.74 15 1 15 C-0.32 13.35 -1.64 11.7 -3 10 C-1 9 -1 9 2.125 9.9375 C3.548125 10.4634375 3.548125 10.4634375 5 11 C5 11.99 5 12.98 5 14 C6.32 14.33 7.64 14.66 9 15 C9.08226668 11.95613276 8.97608217 9.92824652 8 7 C6.68 7.33 5.36 7.66 4 8 C4 6.68 4 5.36 4 4 C-1.96674616 2.67405641 -7.92583615 2.9115413 -14 3 C-14 2.34 -14 1.68 -14 1 C-9.77824366 -1.11087817 -4.58395579 -0.50549888 0 0 Z " fill="#4B42DB" transform="translate(241,226)"/>
<path d="M0 0 C1.21816406 0.03480469 1.21816406 0.03480469 2.4609375 0.0703125 C3.68683594 0.09738281 3.68683594 0.09738281 4.9375 0.125 C5.87722656 0.15980469 5.87722656 0.15980469 6.8359375 0.1953125 C6.8359375 0.5253125 6.8359375 0.8553125 6.8359375 1.1953125 C5.7428125 1.4221875 4.6496875 1.6490625 3.5234375 1.8828125 C-0.21738773 2.87276675 -0.21738773 2.87276675 -2.1640625 5.5078125 C-3.35210699 8.70068208 -3.38279262 10.02661419 -2.1640625 13.1953125 C0.02818044 16.19949727 1.14025787 17.07936589 4.8359375 17.6953125 C7.87983565 17.39601665 7.87983565 17.39601665 10.2109375 15.6328125 C12.45934269 12.26020471 12.40377695 10.17018867 11.8359375 6.1953125 C9.98172911 3.75432432 9.98172911 3.75432432 7.8359375 2.1953125 C8.1659375 1.5353125 8.4959375 0.8753125 8.8359375 0.1953125 C11.8359375 1.1953125 11.8359375 1.1953125 13.8359375 4.1953125 C14.73846272 11.34518765 13.57332334 17.59625735 10.8359375 24.1953125 C11.4959375 24.1953125 12.1559375 24.1953125 12.8359375 24.1953125 C11.8359375 27.1953125 11.8359375 27.1953125 9.8359375 28.1953125 C2.67041685 28.92018275 -2.33609738 28.53528653 -8.1640625 24.1953125 C-8.8240625 23.2053125 -9.4840625 22.2153125 -10.1640625 21.1953125 C-9.6484375 21.5253125 -9.1328125 21.8553125 -8.6015625 22.1953125 C-5.38379738 23.51542127 -2.6070097 23.32773355 0.8359375 23.1953125 C0.8359375 24.1853125 0.8359375 25.1753125 0.8359375 26.1953125 C2.8159375 26.1953125 4.7959375 26.1953125 6.8359375 26.1953125 C7.1659375 24.2153125 7.4959375 22.2353125 7.8359375 20.1953125 C5.8559375 20.5253125 3.8759375 20.8553125 1.8359375 21.1953125 C1.8359375 20.5353125 1.8359375 19.8753125 1.8359375 19.1953125 C-1.79291574 19.04381952 -1.79291574 19.04381952 -5.1640625 20.1953125 C-5.1640625 19.2053125 -5.1640625 18.2153125 -5.1640625 17.1953125 C-5.8240625 16.8653125 -6.4840625 16.5353125 -7.1640625 16.1953125 C-7.64524703 11.2230724 -6.10237187 6.72099814 -4.1640625 2.1953125 C-2.1640625 0.1953125 -2.1640625 0.1953125 0 0 Z " fill="#4C43CE" transform="translate(337.1640625,234.8046875)"/>
<path d="M0 0 C0.66 0.66 1.32 1.32 2 2 C2.99 2.66 3.98 3.32 5 4 C5.55917108 8.02603178 4.39737627 11.24455129 3 15 C3.99 15.33 4.98 15.66 6 16 C6.33 16.33 6.66 16.66 7 17 C10.81065253 18.47229757 13.91252557 19.24043967 18 19 C17.67 20.98 17.34 22.96 17 25 C15.02 25 13.04 25 11 25 C11 24.01 11 23.02 11 22 C9.9275 22.226875 8.855 22.45375 7.75 22.6875 C4 23 4 23 1.6875 21.875 C-1.96366641 17.81814843 -2.2741846 13.61497388 -2.25 8.3125 C-2.25515625 7.17425781 -2.2603125 6.03601563 -2.265625 4.86328125 C-2 2 -2 2 0 0 Z " fill="#4E45E6" transform="translate(327,236)"/>
<path d="M0 0 C-0.33 1.65 -0.66 3.3 -1 5 C-2.32 5.33 -3.64 5.66 -5 6 C-5 6.66 -5 7.32 -5 8 C-16.70425444 9.50351095 -16.70425444 9.50351095 -21 8 C-22.375 5.4375 -22.375 5.4375 -23 3 C-19.82424612 1.41212306 -17.37154016 0.8967811 -13.875 1 C-8.34348912 1 -5.89867681 -1.11295789 0 0 Z " fill="#4E45E6" transform="translate(248,253)"/>
<path d="M0 0 C0.33 0 0.66 0 1 0 C1 15.51 1 31.02 1 47 C2.98 47.33 4.96 47.66 7 48 C8.62514468 46.54166642 8.62514468 46.54166642 10 45 C12.1875 45.3125 12.1875 45.3125 14 46 C14 46.66 14 47.32 14 48 C15.79133978 48.05391993 17.58313899 48.09275571 19.375 48.125 C20.87160156 48.15980469 20.87160156 48.15980469 22.3984375 48.1953125 C25.16262173 48.27216848 25.16262173 48.27216848 27 46 C27.99 45.505 27.99 45.505 29 45 C29.33 44.01 29.66 43.02 30 42 C30.33 42.99 30.66 43.98 31 45 C33.475 44.505 33.475 44.505 36 44 C30.22289774 49.92913126 30.22289774 49.92913126 26.1015625 50.16796875 C24.38066406 50.17763672 24.38066406 50.17763672 22.625 50.1875 C20.91183594 50.20876953 20.91183594 50.20876953 19.1640625 50.23046875 C16.16063184 50.01170034 14.52074066 49.57080637 12 48 C11.67 48.66 11.34 49.32 11 50 C7.37 50 3.74 50 0 50 C0 33.5 0 17 0 0 Z " fill="#4E48C5" transform="translate(256,213)"/>
<path d="M0 0 C3.63 0 7.26 0 11 0 C10.67 0.66 10.34 1.32 10 2 C7.36 1.67 4.72 1.34 2 1 C2.08378906 1.69480469 2.16757813 2.38960937 2.25390625 3.10546875 C3.32361851 13.78905066 2.66879663 24.3068366 2 35 C2.66 35 3.32 35 4 35 C4.33 34.34 4.66 33.68 5 33 C5 33.66 5 34.32 5 35 C6.32 35 7.64 35 9 35 C9 29.06 9 23.12 9 17 C9.99 17 10.98 17 12 17 C11.67 23.6 11.34 30.2 11 37 C7.37 37 3.74 37 0 37 C0 24.79 0 12.58 0 0 Z " fill="#4945C3" transform="translate(193,226)"/>
<path d="M0 0 C3.80635497 3.20760251 7.54563567 6.40746109 11 10 C12.65 9.34 14.3 8.68 16 8 C15.67 9.32 15.34 10.64 15 12 C12.125 12.1875 12.125 12.1875 9 12 C8.34 11.01 7.68 10.02 7 9 C3.41642759 8.74984127 3.41642759 8.74984127 0 9 C0.350625 9.763125 0.70125 10.52625 1.0625 11.3125 C2 14 2 14 1 17 C-1.64 14.36 -4.28 11.72 -7 9 C-5.04783565 5.09567131 -3.12613393 2.96160056 0 0 Z " fill="#4F47C7" transform="translate(372,225)"/>
<path d="M0 0 C7.71484375 -0.09765625 7.71484375 -0.09765625 10 0 C11 1 11 1 11.09765625 3.28515625 C11.04882812 7.14257812 11.04882812 7.14257812 11 11 C7.37 11 3.74 11 0 11 C0 7.37 0 3.74 0 0 Z " fill="#4B43E3" transform="translate(407,252)"/>
<path d="M0 0 C2.97 0.33 5.94 0.66 9 1 C8.34 2.65 7.68 4.3 7 6 C6.34 6 5.68 6 5 6 C5 6.66 5 7.32 5 8 C2.66705225 8.04241723 0.33297433 8.04092937 -2 8 C-2.33 7.67 -2.66 7.34 -3 7 C-3.598125 7.165 -4.19625 7.33 -4.8125 7.5 C-7.25988354 8.05940195 -8.63996734 7.75858193 -11 7 C-11 5.02 -11 3.04 -11 1 C-7.37 1.33 -3.74 1.66 0 2 C0 1.34 0 0.68 0 0 Z " fill="#4E45E6" transform="translate(177,253)"/>
<path d="M0 0 C0.56847656 0.32613281 1.13695312 0.65226563 1.72265625 0.98828125 C4.18848909 2.083737 5.76023887 2.23853964 8.4375 2.1875 C9.62085938 2.17396484 9.62085938 2.17396484 10.828125 2.16015625 C13.12465338 2.07772566 13.12465338 2.07772566 15.6875 1.125 C18 1 18 1 19.6328125 2.26953125 C21.16661121 3.79262904 22.60673098 5.34818622 24 7 C23.03259368 10.11719813 21.99234055 11.00476588 19.1875 12.75 C13.07288895 15.06536527 5.54668383 15.22281189 -0.6171875 13.09765625 C-2.8125 12 -2.8125 12 -6 10 C-2.20720018 8.73573339 -0.65934648 9.59854816 3 11 C3.66 11.33 4.32 11.66 5 12 C8.5 12.25 8.5 12.25 12 12 C12.66 11.34 13.32 10.68 14 10 C15.98821313 9.60235737 17.98944339 9.26224651 20 9 C20.33 8.01 20.66 7.02 21 6 C16.3964975 4.54562976 11.54086371 4.65805767 6.75585938 4.48242188 C3.02771262 4.2989569 1.17394768 4.11596512 -2 2 C-1.34 1.34 -0.68 0.68 0 0 Z " fill="#4942C3" transform="translate(130,249)"/>
<path d="M0 0 C5.41882872 2.9724643 9.06082418 5.48904533 12 11 C12 11.66 12 12.32 12 13 C12.928125 12.835 13.85625 12.67 14.8125 12.5 C18 12 18 12 21 12 C20.67 12.99 20.34 13.98 20 15 C18.02 15.33 16.04 15.66 14 16 C14.04640625 16.60328125 14.0928125 17.2065625 14.140625 17.828125 C14.43910806 24.4373928 14.43910806 24.4373928 12 27.5625 C11.34 28.036875 10.68 28.51125 10 29 C10 28.34 10 27.68 10 27 C8.02 27 6.04 27 4 27 C3.67 26.01 3.34 25.02 3 24 C5.31 24.33 7.62 24.66 10 25 C11.63113712 21.73772575 11.52986893 18.52424453 11 15 C9.8207709 11.84804184 8.39427664 9.37721529 6 7 C3.24278246 5.76664206 1.03751214 5.41186605 -2 5 C-2 4.34 -2 3.68 -2 3 C-1.34 3 -0.68 3 0 3 C0 2.01 0 1.02 0 0 Z " fill="#4950B8" transform="translate(68,203)"/>
<path d="M0 0 C1.8871875 0.0309375 1.8871875 0.0309375 3.8125 0.0625 C3.8125 0.7225 3.8125 1.3825 3.8125 2.0625 C4.4725 2.0625 5.1325 2.0625 5.8125 2.0625 C5.8125 2.7225 5.8125 3.3825 5.8125 4.0625 C6.4725 4.3925 7.1325 4.7225 7.8125 5.0625 C7.8125 6.0525 7.8125 7.0425 7.8125 8.0625 C4.8125 9.0625 4.8125 9.0625 1.4375 8.0625 C-2.02036722 6.7982437 -2.02036722 6.7982437 -4.875 7.6875 C-5.638125 7.81125 -6.40125 7.935 -7.1875 8.0625 C-9.5 6.125 -9.5 6.125 -11.1875 4.0625 C-7.47611183 1.11898524 -4.747758 -0.0778321 0 0 Z " fill="#4E46E6" transform="translate(174.1875,226.9375)"/>
<path d="M0 0 C3.63 0 7.26 0 11 0 C11 12.21 11 24.42 11 37 C10.34 37 9.68 37 9 37 C8.67 25.78 8.34 14.56 8 3 C5.69 2.34 3.38 1.68 1 1 C1 6.61 1 12.22 1 18 C0.67 18 0.34 18 0 18 C0 12.06 0 6.12 0 0 Z " fill="#4A43BE" transform="translate(462,226)"/>
<path d="M0 0 C3.63 0 7.26 0 11 0 C11 2.97 11 5.94 11 9 C7.37 9 3.74 9 0 9 C0 6.03 0 3.06 0 0 Z " fill="#4C44CF" transform="translate(462,213)"/>
<path d="M0 0 C0.66 0.33 1.32 0.66 2 1 C1.67 1.66 1.34 2.32 1 3 C1.66 3 2.32 3 3 3 C3 3.66 3 4.32 3 5 C1.783125 5.165 0.56625 5.33 -0.6875 5.5 C-4.1876868 6.40307311 -5.93614161 7.50024223 -8.0625 10.4375 C-10.88560905 15.54732738 -10.03065387 20.44875541 -9 26 C-9.99 26 -10.98 26 -12 26 C-13 19.375 -13 19.375 -13 16 C-15.97 15.505 -15.97 15.505 -19 15 C-18.67 13.68 -18.34 12.36 -18 11 C-15.525 11.99 -15.525 11.99 -13 13 C-10.61420029 10.70256324 -8.4739889 8.35423732 -6.4375 5.75 C-5.633125 4.8425 -4.82875 3.935 -4 3 C-3.01 3 -2.02 3 -1 3 C-0.67 2.01 -0.34 1.02 0 0 Z " fill="#434EBB" transform="translate(49,203)"/>
<path d="M0 0 C0.33 0.66 0.66 1.32 1 2 C1.66 2 2.32 2 3 2 C3 2.99 3 3.98 3 5 C3.99 5 4.98 5 6 5 C6.3125 7.8125 6.3125 7.8125 6 11 C3.5 12.875 3.5 12.875 1 14 C0.67 13.67 0.34 13.34 0 13 C-0.33 13.66 -0.66 14.32 -1 15 C-3.97 15 -6.94 15 -10 15 C-9.67 14.34 -9.34 13.68 -9 13 C-6.6859378 12.26924352 -4.35171131 11.59861742 -2 11 C-1.34 7.37 -0.68 3.74 0 0 Z " fill="#4B43DB" transform="translate(54,260)"/>
<path d="M0 0 C3.71599191 -0.20086443 4.77208445 -0.1519437 8 2 C8.66 2 9.32 2 10 2 C10.268125 3.134375 10.53625 4.26875 10.8125 5.4375 C11.204375 6.613125 11.59625 7.78875 12 9 C12.99 9.33 13.98 9.66 15 10 C14.67 9.01 14.34 8.02 14 7 C14.66 7 15.32 7 16 7 C16 7.66 16 8.32 16 9 C17.65 9 19.3 9 21 9 C21.33 10.65 21.66 12.3 22 14 C18.6659702 15.47317596 16.84571149 16.27534793 13.3125 15.125 C10.03565373 12.11384397 9.31710684 9.22860618 8 5 C7.01 5 6.02 5 5 5 C4.34 4.01 3.68 3.02 3 2 C2.01 1.34 1.02 0.68 0 0 Z " fill="#4A43E1" transform="translate(24,237)"/>
<path d="M0 0 C0.33 0 0.66 0 1 0 C1.35466362 3.07375142 1.49562241 5.93663172 1 9 C-2.09329134 12.17062362 -4.72991777 13.22374832 -9.0625 13.4375 C-14.03021158 12.88553205 -16.52048931 11.47951069 -20 8 C-22.43252661 7.53837573 -22.43252661 7.53837573 -25.125 7.375 C-26.03507812 7.30023438 -26.94515625 7.22546875 -27.8828125 7.1484375 C-28.58148437 7.09945313 -29.28015625 7.05046875 -30 7 C-29.67 6.34 -29.34 5.68 -29 5 C-23.53430204 4.72208315 -20.55922096 4.70722931 -16 8 C-12.58890453 10.09067142 -9.99273965 10.34719475 -6 10 C-5.34 9.34 -4.68 8.68 -4 8 C-3.34 8 -2.68 8 -2 8 C-1.34 5.36 -0.68 2.72 0 0 Z " fill="#3C44A9" transform="translate(57,276)"/>
<path d="M0 0 C0.33 0 0.66 0 1 0 C1 12.21 1 24.42 1 37 C-2.63 37 -6.26 37 -10 37 C-7.75 32.5 -7.75 32.5 -4 31 C-3.34 31.99 -2.68 32.98 -2 34 C-0.52793987 31.05587973 -0.76192808 28.03714085 -0.68359375 24.8046875 C-0.66281265 24.09724396 -0.64203156 23.38980042 -0.62062073 22.66091919 C-0.55518922 20.39904575 -0.49627026 18.13705538 -0.4375 15.875 C-0.39430867 14.34243578 -0.35069418 12.80988343 -0.30664062 11.27734375 C-0.19951445 7.51834927 -0.0982291 3.75923708 0 0 Z " fill="#4C46CB" transform="translate(361,226)"/>
<path d="M0 0 C0 3 0 3 -0.3125 6.4375 C-0.33210192 10.0783343 -0.33210192 10.0783343 2.0625 12.5 C5.91260646 14.46601181 7.89200092 14.21718491 12 13 C14.16666667 11.5 14.16666667 11.5 15 9 C14.77100357 5.67955183 14.4949015 2.989803 13 0 C14.65 0.66 16.3 1.32 18 2 C18 4.64 18 7.28 18 10 C17.34 10 16.68 10 16 10 C16 10.99 16 11.98 16 13 C14.0625 15.25 14.0625 15.25 11 17 C7.89595337 17.13914692 4.99411841 16.83529433 2 16 C-0.39343852 13.60656148 -1.92393693 11.966001 -2.1953125 8.51953125 C-2.17210937 7.62621094 -2.14890625 6.73289063 -2.125 5.8125 C-2.10695313 4.91144531 -2.08890625 4.01039063 -2.0703125 3.08203125 C-2.04710937 2.39496094 -2.02390625 1.70789063 -2 1 C-1.34 0.67 -0.68 0.34 0 0 Z " fill="#4D44C4" transform="translate(431,238)"/>
<path d="M0 0 C5.68711335 2.12123842 9.2291072 5.68912214 12 11 C12 11.99 12 12.98 12 14 C11.34 14 10.68 14 10 14 C9.34 11.69 8.68 9.38 8 7 C6.68 7.33 5.36 7.66 4 8 C4 6.68 4 5.36 4 4 C-1.96674616 2.67405641 -7.92583615 2.9115413 -14 3 C-14 2.34 -14 1.68 -14 1 C-9.77824366 -1.11087817 -4.58395579 -0.50549888 0 0 Z " fill="#4E45C9" transform="translate(241,226)"/>
<path d="M0 0 C0.99 0.33 1.98 0.66 3 1 C3 1.99 3 2.98 3 4 C3.66 4 4.32 4 5 4 C5 5.65 5 7.3 5 9 C1.37 9 -2.26 9 -6 9 C-6.33 8.01 -6.66 7.02 -7 6 C-5.68 6 -4.36 6 -3 6 C-2.814375 5.071875 -2.814375 5.071875 -2.625 4.125 C-2 2 -2 2 0 0 Z " fill="#4C44E5" transform="translate(186,238)"/>
<path d="M0 0 C1.65 0 3.3 0 5 0 C3.01929563 2.35043586 1.01418678 4.67822804 -1 7 C-1.70125 7.825 -2.4025 8.65 -3.125 9.5 C-5 11 -5 11 -6.9375 11.0625 C-9.8548297 9.55963318 -11.78991498 7.39425877 -14 5 C-13.34 3.68 -12.68 2.36 -12 1 C-11.7525 1.598125 -11.505 2.19625 -11.25 2.8125 C-9.83629988 5.28647521 -8.34944617 6.43370255 -6 8 C-5.38125 7.360625 -4.7625 6.72125 -4.125 6.0625 C-2 4 -2 4 0 3 C0 2.01 0 1.02 0 0 Z " fill="#4841C1" transform="translate(379,252)"/>
<path d="M0 0 C1.13016601 5.02296004 0.77916092 8.97874074 0 14 C-0.99 14.33 -1.98 14.66 -3 15 C-2.79375 13.948125 -2.5875 12.89625 -2.375 11.8125 C-1.99911252 7.99097726 -2.00183453 6.23512505 -4 3 C-6.04105639 2.11306697 -6.04105639 2.11306697 -8 2 C-8 1.34 -8 0.68 -8 0 C-4.71023192 -1.09658936 -3.28696233 -0.79953138 0 0 Z " fill="#484BE3" transform="translate(80,231)"/>
<path d="M0 0 C0.89332031 0.30164063 1.78664062 0.60328125 2.70703125 0.9140625 C3.60808594 1.21054688 4.50914062 1.50703125 5.4375 1.8125 C6.12457031 2.05226562 6.81164062 2.29203125 7.51953125 2.5390625 C6.50776688 5.94226992 5.87109543 7.29631581 2.89453125 9.3515625 C2.11078125 9.7434375 1.32703125 10.1353125 0.51953125 10.5390625 C0.51953125 9.8790625 0.51953125 9.2190625 0.51953125 8.5390625 C1.17953125 8.5390625 1.83953125 8.5390625 2.51953125 8.5390625 C3.17953125 6.8890625 3.83953125 5.2390625 4.51953125 3.5390625 C1.54953125 3.2090625 -1.42046875 2.8790625 -4.48046875 2.5390625 C-4.48046875 3.1990625 -4.48046875 3.8590625 -4.48046875 4.5390625 C-6.79046875 4.5390625 -9.10046875 4.5390625 -11.48046875 4.5390625 C-11.48046875 3.5490625 -11.48046875 2.5590625 -11.48046875 1.5390625 C-10.08828125 1.6009375 -10.08828125 1.6009375 -8.66796875 1.6640625 C-4.9396143 1.51785252 -3.57197641 -0.66376884 0 0 Z " fill="#473FBF" transform="translate(181.48046875,250.4609375)"/>
<path d="M0 0 C1.98 0 3.96 0 6 0 C6 3.63 6 7.26 6 11 C4.5975 11.515625 3.195 12.03125 1.75 12.5625 C-3.27916939 14.75632665 -4.81378568 17.05725459 -7 22 C-7.8125 20.375 -7.8125 20.375 -8 18 C-5.57858445 14.63692285 -3.4528574 12.30190493 0 10 C1.32 10 2.64 10 4 10 C4 7.36 4 4.72 4 2 C2.68 1.67 1.36 1.34 0 1 C0 0.67 0 0.34 0 0 Z " fill="#4E48BC" transform="translate(317,225)"/>
<path d="M0 0 C0.99 0.495 0.99 0.495 2 1 C2.625 3.0625 2.625 3.0625 3 5 C3.99 5 4.98 5 6 5 C6.33 5.66 6.66 6.32 7 7 C11.93098331 7.28447981 14.20094371 7.12065338 18 4 C18.99 4.33 19.98 4.66 21 5 C17.41387989 8.83343874 15.47596021 9.90477676 10.125 10.25 C6.30228621 10.17256013 3.87937605 9.70486841 1 7 C0.1875 3.3125 0.1875 3.3125 0 0 Z " fill="#414AA6" transform="translate(60,279)"/>
<path d="M0 0 C0.99 0.495 0.99 0.495 2 1 C1.9175 2.0725 1.835 3.145 1.75 4.25 C1.68502084 7.96598456 1.68502084 7.96598456 3.625 10.4375 C6.77693571 12.51114192 8.28556438 12.66859841 12 12 C14.26518619 10.51218453 16.02186726 8.88393594 18 7 C18 8.32 18 9.64 18 11 C15.30410937 13.62100478 12.844371 15.75197606 9 16 C6.75 15.0625 6.75 15.0625 5 14 C4.67 14.99 4.34 15.98 4 17 C1.09183239 12.63774859 -0.26466826 10.05739378 -0.125 4.75 C-0.09792969 3.41195312 -0.09792969 3.41195312 -0.0703125 2.046875 C-0.04710937 1.37140625 -0.02390625 0.6959375 0 0 Z " fill="#4A42C8" transform="translate(269,240)"/>
<path d="M0 0 C1.65 0.33 3.3 0.66 5 1 C5.33 2.65 5.66 4.3 6 6 C7.32 5.67 8.64 5.34 10 5 C10 6.65 10 8.3 10 10 C8.35 10.66 6.7 11.32 5 12 C4.67 10.02 4.34 8.04 4 6 C3.01 6.33 2.02 6.66 1 7 C-0.5 5.625 -0.5 5.625 -2 4 C-2 3.34 -2 2.68 -2 2 C-1.34 2 -0.68 2 0 2 C0 1.34 0 0.68 0 0 Z " fill="#5046E7" transform="translate(282,228)"/>
<path d="M0 0 C2.38564077 0.57584432 4.66682784 1.22227595 7 2 C7 2.99 7 3.98 7 5 C6.01 5 5.02 5 4 5 C4 7.31 4 9.62 4 12 C4.66 12.33 5.32 12.66 6 13 C2.7 13.66 -0.6 14.32 -4 15 C-3.67 14.01 -3.34 13.02 -3 12 C-1.68 11.67 -0.36 11.34 1 11 C1.33 8.03 1.66 5.06 2 2 C1.34 2 0.68 2 0 2 C0 1.34 0 0.68 0 0 Z " fill="#424DAC" transform="translate(68,212)"/>
<path d="M0 0 C2.97 0.495 2.97 0.495 6 1 C6 3.97 6 6.94 6 10 C2 9 2 9 -1 7 C-0.67 4.69 -0.34 2.38 0 0 Z " fill="#4D43E8" transform="translate(210,225)"/>
<path d="M0 0 C-0.33 0.53625 -0.66 1.0725 -1 1.625 C-2.22699204 4.5391061 -2.14233286 6.86867708 -2 10 C0.475 10.99 0.475 10.99 3 12 C3 12.66 3 13.32 3 14 C-1.455 13.01 -1.455 13.01 -6 12 C-6 11.34 -6 10.68 -6 10 C-5.34 10 -4.68 10 -4 10 C-4.27034634 7.56282742 -4.27034634 7.56282742 -5 5 C-5.99 4.34 -6.98 3.68 -8 3 C-8 2.34 -8 1.68 -8 1 C-3.375 -1.125 -3.375 -1.125 0 0 Z " fill="#434BB2" transform="translate(51,213)"/>
<path d="M0 0 C1.98 0.66 3.96 1.32 6 2 C6 2.66 6 3.32 6 4 C7.299375 3.87625 8.59875 3.7525 9.9375 3.625 C10.66839844 3.55539062 11.39929688 3.48578125 12.15234375 3.4140625 C13.06693359 3.20910156 13.06693359 3.20910156 14 3 C14.33 2.34 14.66 1.68 15 1 C15.66 1.33 16.32 1.66 17 2 C16.67 2.66 16.34 3.32 16 4 C17.175625 3.690625 17.175625 3.690625 18.375 3.375 C19.674375 3.189375 19.674375 3.189375 21 3 C21.66 3.66 22.32 4.32 23 5 C17.52215768 6.82594744 10.30591938 7.26596913 4.84765625 5.17578125 C2.63459635 3.72024797 1.18937609 2.37875217 0 0 Z " fill="#4543D2" transform="translate(159,257)"/>
<path d="M0 0 C7.71484375 -0.09765625 7.71484375 -0.09765625 10 0 C11 1 11 1 11.09765625 3.28515625 C11.08605469 4.20167969 11.07445312 5.11820312 11.0625 6.0625 C11.05347656 6.98160156 11.04445313 7.90070313 11.03515625 8.84765625 C11.02355469 9.55792969 11.01195312 10.26820313 11 11 C10.67 11 10.34 11 10 11 C9.67 8.36 9.34 5.72 9 3 C6.69 2.67 4.38 2.34 2 2 C1.67 4.97 1.34 7.94 1 11 C0.67 11 0.34 11 0 11 C0 7.37 0 3.74 0 0 Z " fill="#4A42C3" transform="translate(407,252)"/>
<path d="M0 0 C0.33 0.66 0.66 1.32 1 2 C0.01 3.485 0.01 3.485 -1 5 C-1.66 5 -2.32 5 -3 5 C-4.08187107 8.51178784 -4.13346699 11.77552566 -4.125 15.4375 C-4.12757813 16.54996094 -4.13015625 17.66242188 -4.1328125 18.80859375 C-4.01399223 21.66377492 -3.65353269 24.22507946 -3 27 C-6.54448552 22.53086608 -7.34387054 19.01752353 -7.2890625 13.41796875 C-6.64055602 7.99329966 -3.93735419 3.67787239 0 0 Z " fill="#4C45BB" transform="translate(330,229)"/>
<path d="M0 0 C0.66 0 1.32 0 2 0 C2.66 2.64 3.32 5.28 4 8 C4.66 8 5.32 8 6 8 C5.33501617 12.38889325 3.81242323 15.9811485 2 20 C1.34 19.67 0.68 19.34 0 19 C0.37125 17.7625 0.7425 16.525 1.125 15.25 C2.04435948 11.60448428 1.90106301 10.27405295 0 7 C-0.0777346 4.66796188 -0.08967728 2.33160941 0 0 Z " fill="#4650B4" transform="translate(60,210)"/>
<path d="M0 0 C0.99 0 1.98 0 3 0 C2.67 6.6 2.34 13.2 2 20 C-1.3 20 -4.6 20 -8 20 C-8 18.35 -8 16.7 -8 15 C-7.67 15.99 -7.34 16.98 -7 18 C-6.34 18 -5.68 18 -5 18 C-4.67 17.34 -4.34 16.68 -4 16 C-4 16.66 -4 17.32 -4 18 C-2.68 18 -1.36 18 0 18 C0 12.06 0 6.12 0 0 Z " fill="#4541D3" transform="translate(202,243)"/>
<path d="M0 0 C0 0.99 0 1.98 0 3 C-0.33 3.33 -0.66 3.66 -1 4 C-0.34 4.33 0.32 4.66 1 5 C1 5.99 1 6.98 1 8 C0.34 8 -0.32 8 -1 8 C-1.99 9.485 -1.99 9.485 -3 11 C-3.66 11 -4.32 11 -5 11 C-5 10.34 -5 9.68 -5 9 C-5.66 9 -6.32 9 -7 9 C-5.64978174 4.58110387 -3.73884332 2.65654657 0 0 Z " fill="#4C45CE" transform="translate(225,228)"/>
<path d="M0 0 C0.66 0 1.32 0 2 0 C1.67 2.31 1.34 4.62 1 7 C1.78375 7.061875 2.5675 7.12375 3.375 7.1875 C4.24125 7.455625 5.1075 7.72375 6 8 C7.3125 10.5625 7.3125 10.5625 8 13 C7.01 13.33 6.02 13.66 5 14 C4.67 12.68 4.34 11.36 4 10 C2.68 9.67 1.36 9.34 0 9 C-0.66 6.69 -1.32 4.38 -2 2 C-1.34 1.34 -0.68 0.68 0 0 Z " fill="#434BBF" transform="translate(40,260)"/>
<path d="M0 0 C0.33 0.99 0.66 1.98 1 3 C0.67 3.66 0.34 4.32 0 5 C-0.66 5 -1.32 5 -2 5 C-2.0272415 6.41655793 -2.04650467 7.83327045 -2.0625 9.25 C-2.07410156 10.03890625 -2.08570313 10.8278125 -2.09765625 11.640625 C-2.00280463 13.93224025 -1.63737546 15.80459562 -1 18 C-0.4740625 19.85625 -0.4740625 19.85625 0.0625 21.75 C0.5265625 23.35875 0.5265625 23.35875 1 25 C-2.23745972 21.97140865 -3.79844164 20.07505988 -4.23828125 15.546875 C-4.41047549 9.05787115 -3.77849326 5.31350615 0 0 Z " fill="#4B44C0" transform="translate(158,232)"/>
<path d="M0 0 C2.31 0.66 4.62 1.32 7 2 C5.61945652 4.76108697 4.50160818 6.12379387 2 8 C-1.02883219 8.34466021 -3.96517676 8.23344794 -7 8 C-7.33 7.34 -7.66 6.68 -8 6 C-4.37 6 -0.74 6 3 6 C1.68 4.35 0.36 2.7 -1 1 C-0.67 0.67 -0.34 0.34 0 0 Z " fill="#4C43C9" transform="translate(239,235)"/>
<path d="M0 0 C0 0.66 0 1.32 0 2 C-0.99 2.33 -1.98 2.66 -3 3 C-3 3.66 -3 4.32 -3 5 C-2.34 5.33 -1.68 5.66 -1 6 C-1 6.66 -1 7.32 -1 8 C-2.32 8 -3.64 8 -5 8 C-5.33 6.68 -5.66 5.36 -6 4 C-8.97 4 -11.94 4 -15 4 C-12.02775596 2.01850397 -10.37032887 1.51201979 -6.9375 0.875 C-6.05964844 0.70742187 -5.18179688 0.53984375 -4.27734375 0.3671875 C-2 0 -2 0 0 0 Z " fill="#4A4CB5" transform="translate(52,255)"/>
<path d="M0 0 C6.62177926 0.30656385 11.22125154 1.74288723 17 5 C16.6875 6.875 16.6875 6.875 16 9 C15.01 9.66 14.02 10.32 13 11 C13.33 9.02 13.66 7.04 14 5 C13.01 5 12.02 5 11 5 C11 4.34 11 3.68 11 3 C9.39125 3.0928125 9.39125 3.0928125 7.75 3.1875 C3.89133813 2.99456691 2.71182212 2.60334924 0 0 Z " fill="#5149BA" transform="translate(137,214)"/>
<path d="M0 0 C1.5625 1.3125 1.5625 1.3125 3 3 C4.32 3.66 5.64 4.32 7 5 C3.7 5.33 0.4 5.66 -3 6 C-3 5.34 -3 4.68 -3 4 C-3.99 4 -4.98 4 -6 4 C-5.67 3.01 -5.34 2.02 -5 1 C-2.6875 0.3125 -2.6875 0.3125 0 0 Z " fill="#453FD6" transform="translate(450,257)"/>
<path d="M0 0 C2 1 4 2 6 3 C9.3388182 3.22258788 11.58002082 3.17580524 14.6875 1.875 C15.450625 1.58625 16.21375 1.2975 17 1 C17.99 1.66 18.98 2.32 20 3 C18.865625 3.309375 17.73125 3.61875 16.5625 3.9375 C13.21224901 4.62924531 13.21224901 4.62924531 12 6 C7.13813926 6.45226612 4.20674962 5.40385693 0 3 C0 2.01 0 1.02 0 0 Z " fill="#4943BF" transform="translate(226,249)"/>
<path d="M0 0 C0.66 0 1.32 0 2 0 C2.33 2.97 2.66 5.94 3 9 C0.1875 10.125 0.1875 10.125 -3 11 C-3.99 10.34 -4.98 9.68 -6 9 C-6 8.34 -6 7.68 -6 7 C-4.02 7 -2.04 7 0 7 C0 4.69 0 2.38 0 0 Z " fill="#4E50B3" transform="translate(88,247)"/>
<path d="M0 0 C3.71599191 -0.20086443 4.77208445 -0.1519437 8 2 C8.66 2 9.32 2 10 2 C11.32 5.96 12.64 9.92 14 14 C11 13 11 13 10.05078125 11.15234375 C9.68533203 10.05599609 9.68533203 10.05599609 9.3125 8.9375 C9.06113281 8.20402344 8.80976562 7.47054687 8.55078125 6.71484375 C8.36902344 6.14894531 8.18726563 5.58304688 8 5 C7.01 5 6.02 5 5 5 C4.34 4.01 3.68 3.02 3 2 C2.01 1.34 1.02 0.68 0 0 Z " fill="#4B4BB0" transform="translate(24,237)"/>
<path d="M0 0 C0.66 0.33 1.32 0.66 2 1 C1.67 1.66 1.34 2.32 1 3 C1.66 3 2.32 3 3 3 C3 3.66 3 4.32 3 5 C1.1128125 5.309375 1.1128125 5.309375 -0.8125 5.625 C-4.48109578 6.50806022 -4.82716085 6.72993883 -7 10.125 C-7.33 11.07375 -7.66 12.0225 -8 13 C-8.8125 11.375 -8.8125 11.375 -9 9 C-6.75 5.75 -6.75 5.75 -4 3 C-3.01 3 -2.02 3 -1 3 C-0.67 2.01 -0.34 1.02 0 0 Z " fill="#3F4EA8" transform="translate(49,203)"/>
<path d="M0 0 C0.33 1.32 0.66 2.64 1 4 C4.465 3.505 4.465 3.505 8 3 C6.71937515 4.7074998 5.38232443 6.37373596 4 8 C3.34 8 2.68 8 2 8 C2 9.32 2 10.64 2 12 C1.34 12 0.68 12 0 12 C0 8.04 0 4.08 0 0 Z " fill="#3D46B9" transform="translate(26,190)"/>
<path d="M0 0 C0.5625 1.9375 0.5625 1.9375 1 4 C0.67 4.33 0.34 4.66 0 5 C-0.07258946 7.18639453 -0.08373783 9.37500389 -0.0625 11.5625 C-0.05347656 12.76003906 -0.04445313 13.95757812 -0.03515625 15.19140625 C-0.02355469 16.11824219 -0.01195312 17.04507813 0 18 C0.66 18 1.32 18 2 18 C2.33 19.65 2.66 21.3 3 23 C-1.92870302 18.2302874 -1.92870302 18.2302874 -2.16796875 14.1015625 C-2.17441406 12.95429688 -2.18085938 11.80703125 -2.1875 10.625 C-2.20167969 9.48289063 -2.21585937 8.34078125 -2.23046875 7.1640625 C-2.01170034 4.16063184 -1.57080637 2.52074066 0 0 Z " fill="#4A44C1" transform="translate(422,234)"/>
<path d="M0 0 C0.66 0.66 1.32 1.32 2 2 C3.96488831 2.88778692 3.96488831 2.88778692 6.125 3.625 C6.84945312 3.88539063 7.57390625 4.14578125 8.3203125 4.4140625 C8.87460938 4.60742188 9.42890625 4.80078125 10 5 C10 5.66 10 6.32 10 7 C7.0703125 6.16992188 7.0703125 6.16992188 4.140625 5.33984375 C1.78041204 4.96513841 0.25580949 5.27346676 -2 6 C-2 2 -2 2 0 0 Z " fill="#4D48C9" transform="translate(61,239)"/>
<path d="M0 0 C2 1.5625 2 1.5625 4 4 C4.375 7.625 4.375 7.625 4 11 C3.34 11.66 2.68 12.32 2 13 C0.21590198 9.93753253 -0.22880021 7.77920727 -0.125 4.25 C-0.10695313 3.45078125 -0.08890625 2.6515625 -0.0703125 1.828125 C-0.04710938 1.22484375 -0.02390625 0.6215625 0 0 Z " fill="#4141D3" transform="translate(80,232)"/>
<path d="M0 0 C1.01964844 -0.01675781 2.03929687 -0.03351563 3.08984375 -0.05078125 C6.43120105 0.35755808 8.32590652 1.40242831 11.0625 3.3125 C8.57157189 4.55796405 7.65169267 4.0892578 5.0625 3.3125 C5.0625 2.6525 5.0625 1.9925 5.0625 1.3125 C-0.14228772 1.86973187 -0.14228772 1.86973187 -5.25 2.9375 C-6.9375 3.3125 -6.9375 3.3125 -9.9375 2.3125 C-6.56812701 0.28441218 -3.90539912 0.01477452 0 0 Z " fill="#4E46C4" transform="translate(172.9375,225.6875)"/>
<path d="M0 0 C0.33 0.99 0.66 1.98 1 3 C0.34 4.32 -0.32 5.64 -1 7 C-3.97 7 -6.94 7 -10 7 C-9.67 6.34 -9.34 5.68 -9 5 C-6.6859378 4.26924352 -4.35171131 3.59861742 -2 3 C-2 2.34 -2 1.68 -2 1 C-1.34 0.67 -0.68 0.34 0 0 Z " fill="#413ED6" transform="translate(54,268)"/>
<path d="M0 0 C0.66 0.33 1.32 0.66 2 1 C0.92598892 3.91517292 0.22189824 5.77810176 -2 8 C-4.1640625 8.4140625 -4.1640625 8.4140625 -6.625 8.625 C-7.44226563 8.69976562 -8.25953125 8.77453125 -9.1015625 8.8515625 C-9.72804688 8.90054687 -10.35453125 8.94953125 -11 9 C-10 7 -10 7 -8.22265625 6.2890625 C-7.50980469 6.06992187 -6.79695313 5.85078125 -6.0625 5.625 C-2.72661404 4.49906558 -2.72661404 4.49906558 -0.5 1.8125 C-0.335 1.214375 -0.17 0.61625 0 0 Z " fill="#484EAC" transform="translate(95,257)"/>
<path d="M0 0 C2.14014979 4.28029958 2.15816979 4.88772754 1.125 9.25 C0.92132813 10.14203125 0.71765625 11.0340625 0.5078125 11.953125 C0.34023437 12.62859375 0.17265625 13.3040625 0 14 C0.99 14 1.98 14 3 14 C3 14.66 3 15.32 3 16 C1.35 16.33 -0.3 16.66 -2 17 C-1.34 11.39 -0.68 5.78 0 0 Z " fill="#4543C2" transform="translate(83,258)"/>
<path d="M0 0 C2.1875 0.3125 2.1875 0.3125 4 1 C3.67 1.99 3.34 2.98 3 4 C2.67 3.67 2.34 3.34 2 3 C1.67 3.66 1.34 4.32 1 5 C-5.625 5.125 -5.625 5.125 -9 4 C-9 3.34 -9 2.68 -9 2 C-7.6078125 2.3403125 -7.6078125 2.3403125 -6.1875 2.6875 C-5.135625 2.790625 -4.08375 2.89375 -3 3 C-1.37485532 1.54166642 -1.37485532 1.54166642 0 0 Z " fill="#4540D0" transform="translate(266,258)"/>
<path d="M0 0 C0.66 0.33 1.32 0.66 2 1 C2 1.33 2 1.66 2 2 C4.64 2.33 7.28 2.66 10 3 C10 3.33 10 3.66 10 4 C8.741875 4.268125 7.48375 4.53625 6.1875 4.8125 C3.00551199 5.59532537 0.99755689 6.25335928 -1 9 C-2.0326802 6.21176345 -2.04509293 5.1322726 -1.0625 2.25 C-0.711875 1.5075 -0.36125 0.765 0 0 Z " fill="#4B41D1" transform="translate(228,232)"/>
<path d="M0 0 C3.3 0 6.6 0 10 0 C10 2.64 10 5.28 10 8 C9.67 7.34 9.34 6.68 9 6 C7.68 6 6.36 6 5 6 C5 4 5 4 7 2 C4.69 2 2.38 2 0 2 C0 1.34 0 0.68 0 0 Z " fill="#4B46D2" transform="translate(351,226)"/>
<path d="M0 0 C1.31878578 0.76002917 2.6298684 1.53343653 3.9375 2.3125 C4.66839844 2.74175781 5.39929688 3.17101562 6.15234375 3.61328125 C8 5 8 5 9 8 C8.01 8.495 8.01 8.495 7 9 C6.62875 8.525625 6.2575 8.05125 5.875 7.5625 C3.37353038 5.47794198 1.18406582 5.35378509 -2 5 C-2 4.34 -2 3.68 -2 3 C-1.34 3 -0.68 3 0 3 C0 2.01 0 1.02 0 0 Z " fill="#3E4EAC" transform="translate(68,203)"/>
<path d="M0 0 C2.375 1.5 2.375 1.5 4 3 C3.67 4.32 3.34 5.64 3 7 C2.608125 6.34 2.21625 5.68 1.8125 5 C0.15762272 2.73564864 0.15762272 2.73564864 -2.5625 2.6875 C-5.00331739 2.8642238 -5.00331739 2.8642238 -7 4 C-7 3.34 -7 2.68 -7 2 C-7.66 1.67 -8.32 1.34 -9 1 C-5.70952793 -0.09682402 -3.44927034 -0.28157309 0 0 Z " fill="#3847A3" transform="translate(53,182)"/>
<path d="M0 0 C1.43655854 -0.08131463 2.8744483 -0.13933559 4.3125 -0.1875 C5.51326172 -0.23970703 5.51326172 -0.23970703 6.73828125 -0.29296875 C9 0 9 0 10.80078125 1.37890625 C12 3 12 3 11.875 5.125 C11.441875 6.053125 11.441875 6.053125 11 7 C10.01 7.33 9.02 7.66 8 8 C7.34 7.34 6.68 6.68 6 6 C6.99 5.67 7.98 5.34 9 5 C9 4.34 9 3.68 9 3 C4.545 2.01 4.545 2.01 0 1 C0 0.67 0 0.34 0 0 Z " fill="#4D43C3" transform="translate(170,235)"/>
<path d="M0 0 C0 3.58719877 -0.12197366 5.93109837 -2.4375 8.75 C-4 10 -4 10 -6 10 C-4.6302836 6.00499382 -2.74277578 3.19990508 0 0 Z M1 3 C5 4 5 4 5 4 Z " fill="#4E49C9" transform="translate(122,220)"/>
<path d="M0 0 C0.68707555 2.49064888 1 4.37886292 1 7 C3.475 7.99 3.475 7.99 6 9 C4.02 9.99 4.02 9.99 2 11 C0.68 10.01 -0.64 9.02 -2 8 C-1.125 1.125 -1.125 1.125 0 0 Z " fill="#4B4FB8" transform="translate(29,247)"/>
<path d="M0 0 C2.875 0.125 2.875 0.125 6 1 C7.04892238 2.63631892 8.04906703 4.30485863 9 6 C11.57099402 7.34689915 11.57099402 7.34689915 14 8 C13.34 8.66 12.68 9.32 12 10 C9.37098712 8.47793991 7.15634036 7.15634036 5 5 C5 4.01 5 3.02 5 2 C4.38125 2.20625 3.7625 2.4125 3.125 2.625 C2.42375 2.74875 1.7225 2.8725 1 3 C0.34 2.34 -0.32 1.68 -1 1 C-0.67 0.67 -0.34 0.34 0 0 Z " fill="#4049AF" transform="translate(13,239)"/>
<path d="M0 0 C0.33 0.66 0.66 1.32 1 2 C3.01669827 3.13350534 3.01669827 3.13350534 5 4 C5 4.66 5 5.32 5 6 C4.34 6 3.68 6 3 6 C1.99782936 9.58327753 1.99782936 9.58327753 3 13 C2.01 12.67 1.02 12.34 0 12 C0.185625 11.4225 0.37125 10.845 0.5625 10.25 C1.0497818 7.74397932 0.68239817 6.42630459 0 4 C0 2.68 0 1.36 0 0 Z " fill="#4240D7" transform="translate(62,229)"/>
<path d="M0 0 C1.17825358 0.90172468 2.34231577 1.82201502 3.5 2.75 C4.1496875 3.26046875 4.799375 3.7709375 5.46875 4.296875 C7 6 7 6 7 10 C6.4225 9.195625 5.845 8.39125 5.25 7.5625 C3.27172282 4.964595 3.27172282 4.964595 1 4.0625 C-1.49911402 3.98440269 -2.8865327 4.71682342 -5 6 C-3.35 4.02 -1.7 2.04 0 0 Z " fill="#524BB7" transform="translate(395,225)"/>
<path d="M0 0 C0.20625 0.639375 0.4125 1.27875 0.625 1.9375 C1.89538209 4.34925077 1.89538209 4.34925077 5.125 4.75 C6.07375 4.8325 7.0225 4.915 8 5 C8 5.66 8 6.32 8 7 C5.03 7 2.06 7 -1 7 C-0.67 4.69 -0.34 2.38 0 0 Z " fill="#423EDF" transform="translate(463,256)"/>
<path d="M0 0 C2.66666667 0.66666667 5.33333333 1.33333333 8 2 C8.33 1.34 8.66 0.68 9 0 C10.32 0.33 11.64 0.66 13 1 C9.47320901 3.35119399 7.97120515 3.21443452 3.8125 3.125 C2.72582031 3.10695313 1.63914062 3.08890625 0.51953125 3.0703125 C-0.72763672 3.03550781 -0.72763672 3.03550781 -2 3 C-1.34 2.01 -0.68 1.02 0 0 Z " fill="#4343CA" transform="translate(66,273)"/>
<path d="M0 0 C1.32 0 2.64 0 4 0 C5.0257259 4.41062136 5.03684712 6.92630576 3 11 C2.34 11 1.68 11 1 11 C1.20625 9.9275 1.4125 8.855 1.625 7.75 C1.9876191 4.12380904 1.98362069 2.91708924 0 0 Z " fill="#4D51C8" transform="translate(76,235)"/>
<path d="M0 0 C0.99 0 1.98 0 3 0 C3 1.65 3 3.3 3 5 C0.36 5 -2.28 5 -5 5 C-5 4.01 -5 3.02 -5 2 C-3.35 2 -1.7 2 0 2 C0 1.34 0 0.68 0 0 Z " fill="#514DCC" transform="translate(44,227)"/>
<path d="M0 0 C0 0.66 0 1.32 0 2 C-1.43344 2.53190541 -2.87195367 3.05015258 -4.3125 3.5625 C-5.51326172 3.99755859 -5.51326172 3.99755859 -6.73828125 4.44140625 C-9 5 -9 5 -12 4 C-7.96889361 0.80291562 -5.14313574 -0.13900367 0 0 Z " fill="#4D46C5" transform="translate(136,215)"/>
<path d="M0 0 C1.98 0.66 3.96 1.32 6 2 C6 2.66 6 3.32 6 4 C7.98 4 9.96 4 12 4 C12.33 4.66 12.66 5.32 13 6 C7.7141451 6.50341475 5.13445849 5.26910671 1 2 C0.67 1.34 0.34 0.68 0 0 Z " fill="#4943C0" transform="translate(159,257)"/>
<path d="M0 0 C0.99 0.33 1.98 0.66 3 1 C3.625 4.375 3.625 4.375 4 8 C3.34 8.66 2.68 9.32 2 10 C0.39644899 6.49223216 -0.22036864 3.85645121 0 0 Z " fill="#4B4EAD" transform="translate(36,220)"/>
<path d="M0 0 C2.475 0.495 2.475 0.495 5 1 C4.67 1.99 4.34 2.98 4 4 C4.59793673 6.35188447 5.25881795 8.68925595 6 11 C2.48389346 8.65592898 1.64205038 6.83145088 0 3 C0 2.01 0 1.02 0 0 Z " fill="#4349A7" transform="translate(52,218)"/>
<path d="M0 0 C1.65 0 3.3 0 5 0 C3.68 1.65 2.36 3.3 1 5 C-0.875 4.6875 -0.875 4.6875 -3 4 C-3.66 3.01 -4.32 2.02 -5 1 C-3.35 1 -1.7 1 0 1 C0 0.67 0 0.34 0 0 Z " fill="#4C45BE" transform="translate(396,258)"/>
<path d="M0 0 C-0.66 0 -1.32 0 -2 0 C-1.67 0.99 -1.34 1.98 -1 3 C-1.66 3.66 -2.32 4.32 -3 5 C-4.65 3.02 -6.3 1.04 -8 -1 C-3.375 -2.25 -3.375 -2.25 0 0 Z " fill="#4F48CE" transform="translate(393,254)"/>
<path d="M0 0 C-0.639375 0.103125 -1.27875 0.20625 -1.9375 0.3125 C-2.9584375 0.6528125 -2.9584375 0.6528125 -4 1 C-4.33 1.99 -4.66 2.98 -5 4 C-5.99 4 -6.98 4 -8 4 C-8.66 4.66 -9.32 5.32 -10 6 C-10 4.35 -10 2.7 -10 1 C-8.68 1.33 -7.36 1.66 -6 2 C-6 1.34 -6 0.68 -6 0 C-3.50907189 -1.24546405 -2.58919267 -0.7767578 0 0 Z " fill="#444CAB" transform="translate(94,238)"/>
<path d="M0 0 C1.63001953 0.01353516 1.63001953 0.01353516 3.29296875 0.02734375 C4.12441406 0.03894531 4.95585937 0.05054688 5.8125 0.0625 C6.1425 1.0525 6.4725 2.0425 6.8125 3.0625 C5.8225 2.7325 4.8325 2.4025 3.8125 2.0625 C-1.22693886 1.65670249 -5.60558226 1.69763923 -10.1875 4.0625 C-9.8575 3.0725 -9.5275 2.0825 -9.1875 1.0625 C-5.90230525 -0.03256492 -3.45086585 -0.03710608 0 0 Z " fill="#4A45C4" transform="translate(342.1875,225.9375)"/>
<path d="M0 0 C2.31 0.33 4.62 0.66 7 1 C6.34 2.98 5.68 4.96 5 7 C4.34 7 3.68 7 3 7 C3 6.01 3 5.02 3 4 C1.68 3.34 0.36 2.68 -1 2 C-0.67 1.34 -0.34 0.68 0 0 Z " fill="#3D48AD" transform="translate(37,202)"/>
<path d="M0 0 C0.99 0.495 0.99 0.495 2 1 C2.625 3.0625 2.625 3.0625 3 5 C3.99 5 4.98 5 6 5 C6 6.32 6 7.64 6 9 C3.525 8.01 3.525 8.01 1 7 C0.67 4.69 0.34 2.38 0 0 Z " fill="#3B43B1" transform="translate(60,279)"/>
<path d="M0 0 C0.33 0 0.66 0 1 0 C1 1.98 1 3.96 1 6 C3.475 6.99 3.475 6.99 6 8 C6 8.66 6 9.32 6 10 C1.545 9.01 1.545 9.01 -3 8 C-2.67 7.34 -2.34 6.68 -2 6 C-1.34 6.33 -0.68 6.66 0 7 C0 4.69 0 2.38 0 0 Z " fill="#454C9E" transform="translate(48,217)"/>
<path d="M0 0 C1.65 0 3.3 0 5 0 C5 2.97 5 5.94 5 9 C4.67 9 4.34 9 4 9 C3.67 7.02 3.34 5.04 3 3 C1.02 3.99 1.02 3.99 -1 5 C-0.67 3.35 -0.34 1.7 0 0 Z " fill="#4941D7" transform="translate(211,226)"/>
<path d="M0 0 C0.37125 0.45375 0.7425 0.9075 1.125 1.375 C3.54264685 3.47029394 5.95430602 4.12013285 9 5 C9 5.66 9 6.32 9 7 C1.36923077 5.52307692 1.36923077 5.52307692 -0.5 2.875 C-0.665 2.25625 -0.83 1.6375 -1 1 C-0.67 0.67 -0.34 0.34 0 0 Z " fill="#494EB2" transform="translate(23,259)"/>
<path d="M0 0 C0.66 0 1.32 0 2 0 C2.0825 0.78375 2.165 1.5675 2.25 2.375 C2.72806339 5.14749104 2.72806339 5.14749104 5.0625 6.3125 C5.701875 6.539375 6.34125 6.76625 7 7 C4 8 4 8 1 7 C-0.25 4.5625 -0.25 4.5625 -1 2 C-0.67 1.34 -0.34 0.68 0 0 Z " fill="#4245B8" transform="translate(14,253)"/>
<path d="M0 0 C1.32 0.33 2.64 0.66 4 1 C4 2.32 4 3.64 4 5 C2.68 5 1.36 5 0 5 C0 3.35 0 1.7 0 0 Z " fill="#4D42CD" transform="translate(398,253)"/>
<path d="M0 0 C0.93065133 2.60582371 1.14917407 3.64198224 0.0625 6.25 C-0.4634375 7.11625 -0.4634375 7.11625 -1 8 C-1.33 7.01 -1.66 6.02 -2 5 C-2.66 5 -3.32 5 -4 5 C-2.25 1.125 -2.25 1.125 0 0 Z " fill="#4746C0" transform="translate(83,243)"/>
<path d="M0 0 C0.33 1.32 0.66 2.64 1 4 C-1.31 4 -3.62 4 -6 4 C-6.33 3.01 -6.66 2.02 -7 1 C-3.535 0.505 -3.535 0.505 0 0 Z " fill="#4447C1" transform="translate(27,271)"/>
<path d="M0 0 C0.99 0 1.98 0 3 0 C3 1.32 3 2.64 3 4 C1.35 4.66 -0.3 5.32 -2 6 C-2.33 5.01 -2.66 4.02 -3 3 C-2.01 2.34 -1.02 1.68 0 1 C0 0.67 0 0.34 0 0 Z " fill="#474CCB" transform="translate(15,241)"/>
<path d="M0 0 C0.33 0 0.66 0 1 0 C1.33 2.97 1.66 5.94 2 9 C1.01 9.495 1.01 9.495 0 10 C-0.66 9.34 -1.32 8.68 -2 8 C-1.42307692 1.42307692 -1.42307692 1.42307692 0 0 Z " fill="#4B53A7" transform="translate(30,203)"/>
<path d="M0 0 C0.33 0 0.66 0 1 0 C1.33 3.3 1.66 6.6 2 10 C1.01 10 0.02 10 -1 10 C-1.02689216 8.52093108 -1.04634621 7.04172517 -1.0625 5.5625 C-1.07410156 4.73878906 -1.08570312 3.91507813 -1.09765625 3.06640625 C-1 1 -1 1 0 0 Z " fill="#4A4EA7" transform="translate(88,203)"/>
<path d="M0 0 C3.465 1.98 3.465 1.98 7 4 C4.50935112 4.68707555 2.62113708 5 0 5 C-0.33 4.01 -0.66 3.02 -1 2 C-0.67 1.34 -0.34 0.68 0 0 Z " fill="#373FA2" transform="translate(41,276)"/>
<path d="M0 0 C0.99 0 1.98 0 3 0 C3 1.32 3 2.64 3 4 C-0.75 5.125 -0.75 5.125 -3 4 C-3 3.34 -3 2.68 -3 2 C-2.01 2 -1.02 2 0 2 C0 1.34 0 0.68 0 0 Z " fill="#4139D7" transform="translate(78,248)"/>
<path d="M0 0 C0.33 1.32 0.66 2.64 1 4 C-1.3125 5.5625 -1.3125 5.5625 -4 7 C-4.99 6.67 -5.98 6.34 -7 6 C-5 4 -5 4 -2.9375 3 C-0.83134399 2.15410058 -0.83134399 2.15410058 0 0 Z " fill="#4B52A3" transform="translate(98,242)"/>
<path d="M0 0 C0.99 0.33 1.98 0.66 3 1 C2.34 2.65 1.68 4.3 1 6 C0.34 6 -0.32 6 -1 6 C-1.625 4.125 -1.625 4.125 -2 2 C-1.34 1.34 -0.68 0.68 0 0 Z " fill="#4F48E3" transform="translate(369,230)"/>
<path d="M0 0 C2.64 0 5.28 0 8 0 C8.33 1.32 8.66 2.64 9 4 C8.4225 3.67 7.845 3.34 7.25 3 C4.80116138 1.72924102 4.80116138 1.72924102 1 2 C0.67 1.34 0.34 0.68 0 0 Z " fill="#463FDF" transform="translate(195,227)"/>
<path d="M0 0 C2.97 0.495 2.97 0.495 6 1 C5.6875 2.875 5.6875 2.875 5 5 C4.01 5.66 3.02 6.32 2 7 C2.33 5.02 2.66 3.04 3 1 C2.01 0.67 1.02 0.34 0 0 Z " fill="#4842C3" transform="translate(148,218)"/>
<path d="M0 0 C2.46800047 1.15173355 4.04783565 2.04783565 6 4 C6 4.99 6 5.98 6 7 C5.34 7 4.68 7 4 7 C2.2856382 5.04072937 0.61594832 3.04119788 -1 1 C-0.67 0.67 -0.34 0.34 0 0 Z " fill="#434AB4" transform="translate(97,205)"/>
<path d="M0 0 C3.3 0 6.6 0 10 0 C9.01 1.485 9.01 1.485 8 3 C4.92463146 2.34099246 2.92264434 1.46132217 0 0 Z " fill="#4C48BF" transform="translate(140,225)"/>
<path d="M0 0 C0.66 0.99 1.32 1.98 2 3 C1.3125 5.625 1.3125 5.625 0 8 C-0.99 8.33 -1.98 8.66 -3 9 C-2.01 6.03 -1.02 3.06 0 0 Z " fill="#4A51A9" transform="translate(101,230)"/>
<path d="M0 0 C2.31 0.33 4.62 0.66 7 1 C6.01 2.485 6.01 2.485 5 4 C2.03 3.505 2.03 3.505 -1 3 C-0.67 2.01 -0.34 1.02 0 0 Z " fill="#4049B1" transform="translate(21,204)"/>
<path d="M0 0 C2.475 0.99 2.475 0.99 5 2 C5 2.66 5 3.32 5 4 C3.02 4.33 1.04 4.66 -1 5 C-0.67 3.35 -0.34 1.7 0 0 Z " fill="#464DBD" transform="translate(81,200)"/>
</svg>
